<svg id="Capa_1" enable-background="new 0 0 512 512" height="60" viewBox="0 0 512 512" width="60" xmlns="http://www.w3.org/2000/svg"><g><path d="m74.339 31.63h363.321v63.937h-363.321z" fill="#eee1dd"/><path d="m74.339 31.63h55.127v63.937h-55.127z" fill="#ccbeb9"/><path d="m471.043 92.121h-430.086c-5.044 0-9.132 4.089-9.132 9.133v403.135h448.352v-403.135c-.001-5.044-4.09-9.133-9.134-9.133z" fill="#fff5f5"/><path d="m96.084 92.121h-55.127c-5.044 0-9.133 4.089-9.133 9.133v403.135h55.127v-403.135c0-5.044 4.089-9.133 9.133-9.133z" fill="#eee1dd"/><path d="m438.87 0h-365.74c-3.945 0-7.143 3.198-7.143 7.143v19.525c0 3.945 3.198 7.143 7.143 7.143h365.74c3.945 0 7.143-3.198 7.143-7.143v-19.525c0-3.945-3.198-7.143-7.143-7.143z" fill="#fff5f5"/><path d="m121.114 26.668v-19.525c0-3.945 3.198-7.143 7.143-7.143h-55.127c-3.945 0-7.143 3.198-7.143 7.143v19.525c0 3.945 3.198 7.143 7.143 7.143h55.127c-3.945 0-7.143-3.198-7.143-7.143z" fill="#eee1dd"/><path d="m319.584 427.261h-64.599v77.128h68.607v-73.119c0-2.215-1.794-4.009-4.008-4.009z" fill="#ddeafb"/><path d="m119.613 139.262h-35.196c-2.357 0-4.268 1.911-4.268 4.268v25.274c0 2.357 1.911 4.268 4.268 4.268h35.195c2.357 0 4.268-1.911 4.268-4.268v-25.274c.001-2.357-1.91-4.268-4.267-4.268z" fill="#9dc6fb"/><path d="m102.015 168.805v-25.275c0-2.357 1.911-4.268 4.268-4.268h-21.866c-2.357 0-4.268 1.911-4.268 4.268v25.275c0 2.357 1.911 4.268 4.268 4.268h21.865c-2.356 0-4.267-1.911-4.267-4.268z" fill="#80b4fb"/><path d="m119.613 347.695h-35.196c-2.357 0-4.268 1.911-4.268 4.268v25.274c0 2.357 1.911 4.268 4.268 4.268h35.195c2.357 0 4.268-1.911 4.268-4.268v-25.274c.001-2.357-1.91-4.268-4.267-4.268z" fill="#9dc6fb"/><path d="m102.015 377.238v-25.275c0-2.357 1.911-4.268 4.268-4.268h-21.866c-2.357 0-4.268 1.911-4.268 4.268v25.275c0 2.357 1.911 4.268 4.268 4.268h21.865c-2.356 0-4.267-1.911-4.267-4.268z" fill="#80b4fb"/><path d="m119.613 278.217h-35.196c-2.357 0-4.268 1.911-4.268 4.268v25.274c0 2.357 1.911 4.268 4.268 4.268h35.195c2.357 0 4.268-1.911 4.268-4.268v-25.274c.001-2.357-1.91-4.268-4.267-4.268z" fill="#9dc6fb"/><path d="m102.015 307.76v-25.275c0-2.357 1.911-4.268 4.268-4.268h-21.866c-2.357 0-4.268 1.911-4.268 4.268v25.275c0 2.357 1.911 4.268 4.268 4.268h21.865c-2.356 0-4.267-1.911-4.267-4.268z" fill="#80b4fb"/><path d="m119.613 208.74h-35.196c-2.357 0-4.268 1.911-4.268 4.268v25.274c0 2.357 1.911 4.268 4.268 4.268h35.195c2.357 0 4.268-1.911 4.268-4.268v-25.274c.001-2.357-1.91-4.268-4.267-4.268z" fill="#9dc6fb"/><path d="m102.015 238.282v-25.274c0-2.357 1.911-4.268 4.268-4.268h-21.866c-2.357 0-4.268 1.911-4.268 4.268v25.274c0 2.357 1.911 4.268 4.268 4.268h21.865c-2.356.001-4.267-1.911-4.267-4.268z" fill="#80b4fb"/><path d="m256 427.261h-63.584c-2.214 0-4.008 1.795-4.008 4.009v73.119h67.592z" fill="#bed8fb"/><path d="m226.213 427.261h-33.796c-2.214 0-4.008 1.794-4.008 4.008v73.119h33.796v-73.119c-.001-2.214 1.794-4.008 4.008-4.008z" fill="#9dc6fb"/><g><path d="m489.665 512h-467.33c-4.204 0-7.611-3.408-7.611-7.612s3.408-7.611 7.611-7.611h467.329c4.204 0 7.611 3.408 7.611 7.611.001 4.204-3.407 7.612-7.61 7.612z" fill="#938493"/></g><path d="m196.605 139.262h-35.195c-2.357 0-4.268 1.911-4.268 4.268v25.274c0 2.357 1.911 4.268 4.268 4.268h35.195c2.357 0 4.268-1.911 4.268-4.268v-25.274c0-2.357-1.911-4.268-4.268-4.268z" fill="#9dc6fb"/><path d="m179.008 168.805v-25.275c0-2.357 1.911-4.268 4.268-4.268h-21.866c-2.357 0-4.268 1.911-4.268 4.268v25.275c0 2.357 1.911 4.268 4.268 4.268h21.865c-2.356 0-4.267-1.911-4.267-4.268z" fill="#80b4fb"/><path d="m196.605 347.695h-35.195c-2.357 0-4.268 1.911-4.268 4.268v25.274c0 2.357 1.911 4.268 4.268 4.268h35.195c2.357 0 4.268-1.911 4.268-4.268v-25.274c0-2.357-1.911-4.268-4.268-4.268z" fill="#9dc6fb"/><path d="m179.008 377.238v-25.275c0-2.357 1.911-4.268 4.268-4.268h-21.866c-2.357 0-4.268 1.911-4.268 4.268v25.275c0 2.357 1.911 4.268 4.268 4.268h21.865c-2.356 0-4.267-1.911-4.267-4.268z" fill="#80b4fb"/><path d="m196.605 278.217h-35.195c-2.357 0-4.268 1.911-4.268 4.268v25.274c0 2.357 1.911 4.268 4.268 4.268h35.195c2.357 0 4.268-1.911 4.268-4.268v-25.274c0-2.357-1.911-4.268-4.268-4.268z" fill="#9dc6fb"/><path d="m179.008 307.76v-25.275c0-2.357 1.911-4.268 4.268-4.268h-21.866c-2.357 0-4.268 1.911-4.268 4.268v25.275c0 2.357 1.911 4.268 4.268 4.268h21.865c-2.356 0-4.267-1.911-4.267-4.268z" fill="#80b4fb"/><path d="m196.605 208.74h-35.195c-2.357 0-4.268 1.911-4.268 4.268v25.274c0 2.357 1.911 4.268 4.268 4.268h35.195c2.357 0 4.268-1.911 4.268-4.268v-25.274c0-2.357-1.911-4.268-4.268-4.268z" fill="#9dc6fb"/><path d="m179.008 238.282v-25.274c0-2.357 1.911-4.268 4.268-4.268h-21.866c-2.357 0-4.268 1.911-4.268 4.268v25.274c0 2.357 1.911 4.268 4.268 4.268h21.865c-2.356.001-4.267-1.911-4.267-4.268z" fill="#80b4fb"/><path d="m273.598 139.262h-35.195c-2.357 0-4.268 1.911-4.268 4.268v25.274c0 2.357 1.911 4.268 4.268 4.268h35.195c2.357 0 4.268-1.911 4.268-4.268v-25.274c0-2.357-1.911-4.268-4.268-4.268z" fill="#9dc6fb"/><path d="m256 168.805v-25.275c0-2.357 1.911-4.268 4.268-4.268h-21.865c-2.357 0-4.268 1.911-4.268 4.268v25.275c0 2.357 1.911 4.268 4.268 4.268h21.865c-2.357 0-4.268-1.911-4.268-4.268z" fill="#80b4fb"/><path d="m273.598 347.695h-35.195c-2.357 0-4.268 1.911-4.268 4.268v25.274c0 2.357 1.911 4.268 4.268 4.268h35.195c2.357 0 4.268-1.911 4.268-4.268v-25.274c0-2.357-1.911-4.268-4.268-4.268z" fill="#9dc6fb"/><path d="m256 377.238v-25.275c0-2.357 1.911-4.268 4.268-4.268h-21.865c-2.357 0-4.268 1.911-4.268 4.268v25.275c0 2.357 1.911 4.268 4.268 4.268h21.865c-2.357 0-4.268-1.911-4.268-4.268z" fill="#80b4fb"/><path d="m273.598 278.217h-35.195c-2.357 0-4.268 1.911-4.268 4.268v25.274c0 2.357 1.911 4.268 4.268 4.268h35.195c2.357 0 4.268-1.911 4.268-4.268v-25.274c0-2.357-1.911-4.268-4.268-4.268z" fill="#9dc6fb"/><path d="m256 307.76v-25.275c0-2.357 1.911-4.268 4.268-4.268h-21.865c-2.357 0-4.268 1.911-4.268 4.268v25.275c0 2.357 1.911 4.268 4.268 4.268h21.865c-2.357 0-4.268-1.911-4.268-4.268z" fill="#80b4fb"/><path d="m273.598 208.74h-35.195c-2.357 0-4.268 1.911-4.268 4.268v25.274c0 2.357 1.911 4.268 4.268 4.268h35.195c2.357 0 4.268-1.911 4.268-4.268v-25.274c0-2.357-1.911-4.268-4.268-4.268z" fill="#9dc6fb"/><path d="m256 238.282v-25.274c0-2.357 1.911-4.268 4.268-4.268h-21.865c-2.357 0-4.268 1.911-4.268 4.268v25.274c0 2.357 1.911 4.268 4.268 4.268h21.865c-2.357.001-4.268-1.911-4.268-4.268z" fill="#80b4fb"/><path d="m350.59 139.262h-35.195c-2.357 0-4.268 1.911-4.268 4.268v25.274c0 2.357 1.911 4.268 4.268 4.268h35.195c2.357 0 4.268-1.911 4.268-4.268v-25.274c0-2.357-1.91-4.268-4.268-4.268z" fill="#9dc6fb"/><path d="m332.993 168.805v-25.275c0-2.357 1.911-4.268 4.268-4.268h-21.865c-2.357 0-4.268 1.911-4.268 4.268v25.275c0 2.357 1.911 4.268 4.268 4.268h21.865c-2.357 0-4.268-1.911-4.268-4.268z" fill="#80b4fb"/><path d="m350.59 347.695h-35.195c-2.357 0-4.268 1.911-4.268 4.268v25.274c0 2.357 1.911 4.268 4.268 4.268h35.195c2.357 0 4.268-1.911 4.268-4.268v-25.274c0-2.357-1.91-4.268-4.268-4.268z" fill="#9dc6fb"/><path d="m332.993 377.238v-25.275c0-2.357 1.911-4.268 4.268-4.268h-21.865c-2.357 0-4.268 1.911-4.268 4.268v25.275c0 2.357 1.911 4.268 4.268 4.268h21.865c-2.357 0-4.268-1.911-4.268-4.268z" fill="#80b4fb"/><path d="m350.59 278.217h-35.195c-2.357 0-4.268 1.911-4.268 4.268v25.274c0 2.357 1.911 4.268 4.268 4.268h35.195c2.357 0 4.268-1.911 4.268-4.268v-25.274c0-2.357-1.91-4.268-4.268-4.268z" fill="#9dc6fb"/><path d="m332.993 307.76v-25.275c0-2.357 1.911-4.268 4.268-4.268h-21.865c-2.357 0-4.268 1.911-4.268 4.268v25.275c0 2.357 1.911 4.268 4.268 4.268h21.865c-2.357 0-4.268-1.911-4.268-4.268z" fill="#80b4fb"/><path d="m350.59 208.74h-35.195c-2.357 0-4.268 1.911-4.268 4.268v25.274c0 2.357 1.911 4.268 4.268 4.268h35.195c2.357 0 4.268-1.911 4.268-4.268v-25.274c0-2.357-1.91-4.268-4.268-4.268z" fill="#9dc6fb"/><path d="m332.993 238.282v-25.274c0-2.357 1.911-4.268 4.268-4.268h-21.865c-2.357 0-4.268 1.911-4.268 4.268v25.274c0 2.357 1.911 4.268 4.268 4.268h21.865c-2.357.001-4.268-1.911-4.268-4.268z" fill="#80b4fb"/><path d="m427.583 139.262h-35.195c-2.357 0-4.268 1.911-4.268 4.268v25.274c0 2.357 1.911 4.268 4.268 4.268h35.195c2.357 0 4.268-1.911 4.268-4.268v-25.274c0-2.357-1.911-4.268-4.268-4.268z" fill="#9dc6fb"/><path d="m409.985 168.805v-25.275c0-2.357 1.911-4.268 4.268-4.268h-21.865c-2.357 0-4.268 1.911-4.268 4.268v25.275c0 2.357 1.911 4.268 4.268 4.268h21.865c-2.357 0-4.268-1.911-4.268-4.268z" fill="#80b4fb"/><path d="m427.583 347.695h-35.195c-2.357 0-4.268 1.911-4.268 4.268v25.274c0 2.357 1.911 4.268 4.268 4.268h35.195c2.357 0 4.268-1.911 4.268-4.268v-25.274c0-2.357-1.911-4.268-4.268-4.268z" fill="#9dc6fb"/><path d="m409.985 377.238v-25.275c0-2.357 1.911-4.268 4.268-4.268h-21.865c-2.357 0-4.268 1.911-4.268 4.268v25.275c0 2.357 1.911 4.268 4.268 4.268h21.865c-2.357 0-4.268-1.911-4.268-4.268z" fill="#80b4fb"/><path d="m427.583 278.217h-35.195c-2.357 0-4.268 1.911-4.268 4.268v25.274c0 2.357 1.911 4.268 4.268 4.268h35.195c2.357 0 4.268-1.911 4.268-4.268v-25.274c0-2.357-1.911-4.268-4.268-4.268z" fill="#9dc6fb"/><path d="m409.985 307.76v-25.275c0-2.357 1.911-4.268 4.268-4.268h-21.865c-2.357 0-4.268 1.911-4.268 4.268v25.275c0 2.357 1.911 4.268 4.268 4.268h21.865c-2.357 0-4.268-1.911-4.268-4.268z" fill="#80b4fb"/><path d="m427.583 208.74h-35.195c-2.357 0-4.268 1.911-4.268 4.268v25.274c0 2.357 1.911 4.268 4.268 4.268h35.195c2.357 0 4.268-1.911 4.268-4.268v-25.274c0-2.357-1.911-4.268-4.268-4.268z" fill="#9dc6fb"/><path d="m409.985 238.282v-25.274c0-2.357 1.911-4.268 4.268-4.268h-21.865c-2.357 0-4.268 1.911-4.268 4.268v25.274c0 2.357 1.911 4.268 4.268 4.268h21.865c-2.357.001-4.268-1.911-4.268-4.268z" fill="#80b4fb"/></g></svg>