<svg id="Capa_1" enable-background="new 0 0 512 512" height="60" viewBox="0 0 512 512" width="60" xmlns="http://www.w3.org/2000/svg"><g><g><path d="m396.091 151.07c-4.204 0-7.612-3.408-7.612-7.611v-51.343c0-4.204 3.408-7.611 7.612-7.611s7.611 3.408 7.611 7.611v51.342c.001 4.204-3.407 7.612-7.611 7.612z" fill="#ddeafb"/></g><path d="m429.818 138.097h-67.453c-3.481 0-6.304 2.822-6.304 6.304v43.685h80.06v-43.686c0-3.481-2.822-6.303-6.303-6.303z" fill="#9dc6fb"/><path d="m412.601 138.097h-50.236c-3.481 0-6.304 2.822-6.304 6.304v43.685h50.236v-43.686c0-3.481 2.823-6.303 6.304-6.303z" fill="#80b4fb"/><path d="m252.831 52.51v-43.317c0-5.056-4.137-9.193-9.193-9.193h-179.331c-5.056 0-9.193 4.137-9.193 9.193v43.317z" fill="#95d6a4"/><path d="m114.543 0h-50.236c-5.056 0-9.193 4.137-9.193 9.193v43.317h50.236v-43.317c0-5.056 4.137-9.193 9.193-9.193z" fill="#78c2a4"/><path d="m488.752 185.041h-198.514v319.348h207.647v-310.215c0-5.044-4.089-9.133-9.133-9.133z" fill="#ddeafb"/><path d="m349.607 185.041h-59.368v319.347h50.236v-310.214c-.001-5.044 4.088-9.133 9.132-9.133z" fill="#bed8fb"/><path d="m374.33 361.586h43.301v32.784h-43.301z" fill="#9dc6fb"/><path d="m374.33 294.219h43.301v32.784h-43.301z" fill="#9dc6fb"/><path d="m374.33 428.954h43.301v32.784h-43.301z" fill="#9dc6fb"/><path d="m374.33 226.851h43.301v32.784h-43.301z" fill="#9dc6fb"/><path d="m449.104 361.586h-34.134v32.784h34.135c2.286 0 4.139-1.853 4.139-4.139v-24.507c-.001-2.285-1.854-4.138-4.14-4.138z" fill="#80b4fb"/><path d="m339.283 365.725v24.507c0 2.286 1.853 4.139 4.139 4.139h34.135v-32.784h-34.135c-2.286-.001-4.139 1.852-4.139 4.138z" fill="#80b4fb"/><path d="m449.104 294.219h-34.134v32.784h34.135c2.285 0 4.138-1.853 4.138-4.139v-24.507c0-2.285-1.853-4.138-4.139-4.138z" fill="#80b4fb"/><path d="m339.283 298.357v24.507c0 2.286 1.853 4.139 4.139 4.139h34.135v-32.784h-34.135c-2.286 0-4.139 1.853-4.139 4.138z" fill="#80b4fb"/><path d="m449.104 428.954h-34.134v32.784h34.135c2.285 0 4.138-1.853 4.138-4.139v-24.507c0-2.285-1.853-4.138-4.139-4.138z" fill="#80b4fb"/><path d="m339.283 433.092v24.507c0 2.286 1.853 4.139 4.139 4.139h34.135v-32.784h-34.135c-2.286 0-4.139 1.852-4.139 4.138z" fill="#80b4fb"/><path d="m449.104 226.851h-34.134v32.784h34.135c2.285 0 4.138-1.853 4.138-4.138v-24.507c0-2.286-1.853-4.139-4.139-4.139z" fill="#80b4fb"/><path d="m339.283 230.989v24.507c0 2.286 1.853 4.139 4.139 4.139h34.135v-32.784h-34.135c-2.286 0-4.139 1.853-4.139 4.138z" fill="#80b4fb"/><path d="m285.165 49.466h-262.385c-5.044 0-9.133 4.089-9.133 9.133v445.79h280.65v-445.791c.001-5.044-4.088-9.132-9.132-9.132z" fill="#b3e59f"/><path d="m73.016 49.466h-50.236c-5.044 0-9.133 4.089-9.133 9.133v445.79h50.236v-445.791c.001-5.044 4.089-9.132 9.133-9.132z" fill="#95d6a4"/><path d="m171.864 159.484h40.256v32.784h-40.256z" fill="#80b4fb"/><path d="m171.864 361.586h40.256v32.784h-40.256z" fill="#80b4fb"/><path d="m171.864 294.219h40.256v32.784h-40.256z" fill="#80b4fb"/><path d="m171.864 428.954h40.256v32.784h-40.256z" fill="#80b4fb"/><path d="m171.864 226.851h40.256v32.784h-40.256z" fill="#80b4fb"/><path d="m171.864 92.116h40.256v32.784h-40.256z" fill="#80b4fb"/><path d="m93.043 159.484h43.893v32.784h-43.893z" fill="#80b4fb"/><path d="m93.043 361.586h43.893v32.784h-43.893z" fill="#80b4fb"/><path d="m93.043 294.219h43.893v32.784h-43.893z" fill="#80b4fb"/><path d="m93.043 428.954h43.893v32.784h-43.893z" fill="#80b4fb"/><path d="m93.043 226.851h43.893v32.784h-43.893z" fill="#80b4fb"/><path d="m93.043 92.116h43.893v32.784h-43.893z" fill="#80b4fb"/><g><g><path d="m504.29 512h-496.58c-4.204 0-7.611-3.408-7.611-7.612s3.408-7.611 7.611-7.611h496.58c4.204 0 7.612 3.408 7.612 7.611 0 4.204-3.408 7.612-7.612 7.612z" fill="#ccf49f"/></g></g><g fill="#61a2f9"><path d="m58.633 163.622v24.507c0 2.285 1.853 4.138 4.138 4.138h34.135v-32.784h-34.134c-2.286.001-4.139 1.854-4.139 4.139z"/><path d="m58.633 365.725v24.507c0 2.286 1.853 4.139 4.139 4.139h34.135v-32.784h-34.135c-2.286-.001-4.139 1.852-4.139 4.138z"/><path d="m58.633 298.357v24.507c0 2.286 1.853 4.139 4.139 4.139h34.135v-32.784h-34.135c-2.286 0-4.139 1.853-4.139 4.138z"/><path d="m58.633 433.092v24.507c0 2.286 1.853 4.139 4.139 4.139h34.135v-32.784h-34.135c-2.286 0-4.139 1.852-4.139 4.138z"/><path d="m58.633 230.989v24.507c0 2.286 1.853 4.139 4.139 4.139h34.135v-32.784h-34.135c-2.286 0-4.139 1.853-4.139 4.138z"/><path d="m58.633 96.254v24.507c0 2.286 1.853 4.139 4.139 4.139h34.135v-32.784h-34.135c-2.286 0-4.139 1.853-4.139 4.138z"/><path d="m134.32 159.484h39.306v32.784h-39.306z"/><path d="m134.32 361.586h39.306v32.784h-39.306z"/><path d="m134.32 294.219h39.306v32.784h-39.306z"/><path d="m134.32 428.954h39.306v32.784h-39.306z"/><path d="m134.32 226.851h39.306v32.784h-39.306z"/><path d="m134.32 92.116h39.306v32.784h-39.306z"/><path d="m245.173 159.484h-34.135v32.784h34.135c2.285 0 4.138-1.853 4.138-4.138v-24.507c.001-2.286-1.852-4.139-4.138-4.139z"/><path d="m245.173 361.586h-34.135v32.784h34.135c2.286 0 4.139-1.853 4.139-4.139v-24.507c0-2.285-1.853-4.138-4.139-4.138z"/><path d="m245.173 294.219h-34.135v32.784h34.135c2.285 0 4.138-1.853 4.138-4.139v-24.507c.001-2.285-1.852-4.138-4.138-4.138z"/><path d="m245.173 428.954h-34.135v32.784h34.135c2.285 0 4.138-1.853 4.138-4.139v-24.507c.001-2.285-1.852-4.138-4.138-4.138z"/><path d="m245.173 226.851h-34.135v32.784h34.135c2.285 0 4.138-1.853 4.138-4.138v-24.507c.001-2.286-1.852-4.139-4.138-4.139z"/><path d="m245.173 92.116h-34.135v32.784h34.135c2.285 0 4.138-1.853 4.138-4.138v-24.507c.001-2.286-1.852-4.139-4.138-4.139z"/></g></g></svg>