<svg id="Capa_1" enable-background="new 0 0 512 512" height="60" viewBox="0 0 512 512" width="60" xmlns="http://www.w3.org/2000/svg"><g><g><path d="m356.077 108.156c-4.204 0-7.612-3.408-7.612-7.611v-46.685c0-4.204 3.408-7.611 7.612-7.611s7.611 3.408 7.611 7.611v46.684c0 4.204-3.408 7.612-7.611 7.612z" fill="#9d6b6b"/></g><g><path d="m155.923 108.156c-4.204 0-7.611-3.408-7.611-7.611v-46.685c0-4.204 3.408-7.611 7.611-7.611 4.204 0 7.611 3.408 7.611 7.611v46.684c0 4.204-3.407 7.612-7.611 7.612z" fill="#9d6b6b"/></g><path d="m75.37 124.563h361.259v180.429h-361.259z" fill="#e27a66"/><path d="m75.37 124.563h38.227v180.429h-38.227z" fill="#dd544f"/><path d="m75.37 313.413h361.259v190.976h-361.259z" fill="#e27a66"/><path d="m75.37 313.413h38.227v190.976h-38.227z" fill="#dd544f"/><path d="m386.534 0h-261.068c-4.123 0-7.466 3.342-7.466 7.465v43.966c0 4.123 3.342 7.465 7.465 7.465h261.068c4.123 0 7.465-3.342 7.465-7.465v-43.966c.001-4.123-3.341-7.465-7.464-7.465z" fill="#ddeafb"/><path d="m156.227 51.431v-43.966c0-4.123 3.342-7.465 7.465-7.465h-38.227c-4.122 0-7.465 3.342-7.465 7.465v43.966c0 4.123 3.342 7.465 7.465 7.465h38.227c-4.123 0-7.465-3.342-7.465-7.465z" fill="#bed8fb"/><g><path d="m443.847 316.814h-375.694c-4.204 0-7.611-3.408-7.611-7.612s3.408-7.611 7.611-7.611h375.694c4.204 0 7.612 3.408 7.612 7.611s-3.408 7.612-7.612 7.612z" fill="#e48e81"/></g><path d="m112.934 190.197v79.51c0 2.961 2.4 5.361 5.361 5.361h60.336c2.961 0 5.361-2.4 5.361-5.361v-79.51c-10.307 0-60.751 0-71.058 0z" fill="#80b4fb"/><path d="m140.946 269.707v-79.51c-12.436 0-23.714 0-28.013 0v79.51c0 2.961 2.4 5.361 5.361 5.361h28.013c-2.96 0-5.361-2.4-5.361-5.361z" fill="#61a2f9"/><path d="m399.066 504.388v-139.302h-35.529-35.529v139.302z" fill="#785252"/><path d="m363.537 365.086h-35.529v139.302h38.227v-139.302z" fill="#523838"/><path d="m393.705 344.769h-60.336c-2.961 0-5.361 2.4-5.361 5.361v24.039h71.058v-24.039c0-2.961-2.4-5.361-5.361-5.361z" fill="#9d6b6b"/><path d="m371.596 344.769h-38.227c-2.961 0-5.361 2.4-5.361 5.361v24.039h38.227v-24.039c0-2.961 2.4-5.361 5.361-5.361z" fill="#785252"/><path d="m437.906 95.59h-363.812c-3.281 0-5.941 2.66-5.941 5.941v20.248c0 3.281 2.66 5.941 5.941 5.941h363.812c3.281 0 5.941-2.66 5.941-5.941v-20.248c0-3.281-2.66-5.941-5.941-5.941z" fill="#e48e81"/><path d="m106.379 121.779v-20.248c0-3.281 2.66-5.941 5.941-5.941h-38.226c-3.281 0-5.941 2.66-5.941 5.941v20.248c0 3.281 2.66 5.941 5.941 5.941h38.227c-3.282 0-5.942-2.66-5.942-5.941z" fill="#e27a66"/><g><path d="m443.847 512h-375.694c-4.204 0-7.611-3.408-7.611-7.612s3.408-7.611 7.611-7.611h375.694c4.204 0 7.612 3.408 7.612 7.611 0 4.204-3.408 7.612-7.612 7.612z" fill="#ccf49f"/></g><g><path d="m377.262 449.415h-5.842c-4.204 0-7.611-3.408-7.611-7.611s3.408-7.612 7.611-7.612h5.842c4.204 0 7.611 3.408 7.611 7.612s-3.407 7.611-7.611 7.611z" fill="#ddeafb"/></g><path d="m140.851 275.068h15.223v-84.871c-5.012 0-10.211 0-15.223 0z" fill="#9dc6fb"/><path d="m178.631 162.826h-60.336c-2.961 0-5.361 2.4-5.361 5.361v24.039h71.058v-24.039c0-2.961-2.4-5.361-5.361-5.361z" fill="#9dc6fb"/><path d="m146.307 162.826h-28.013c-2.961 0-5.361 2.4-5.361 5.361v24.039h27.917v-24.039c.001-2.961 2.497-5.361 5.457-5.361z" fill="#80b4fb"/><path d="m112.934 372.134v79.51c0 2.961 2.4 5.361 5.361 5.361h60.336c2.961 0 5.361-2.4 5.361-5.361v-79.51c-10.307 0-60.751 0-71.058 0z" fill="#80b4fb"/><path d="m140.946 451.644v-79.51c-12.436 0-23.714 0-28.013 0v79.51c0 2.961 2.4 5.361 5.361 5.361h28.013c-2.96 0-5.361-2.4-5.361-5.361z" fill="#61a2f9"/><path d="m140.851 457.005h15.223v-84.871c-5.012 0-10.211 0-15.223 0z" fill="#9dc6fb"/><path d="m178.631 344.763h-60.336c-2.961 0-5.361 2.4-5.361 5.361v24.039h71.058v-24.039c0-2.961-2.4-5.361-5.361-5.361z" fill="#9dc6fb"/><path d="m146.307 344.763h-28.013c-2.961 0-5.361 2.4-5.361 5.361v24.039h28.013v-24.039c0-2.961 2.401-5.361 5.361-5.361z" fill="#80b4fb"/><path d="m220.471 190.197v79.51c0 2.961 2.4 5.361 5.361 5.361h60.336c2.961 0 5.361-2.4 5.361-5.361v-79.51c-10.307 0-60.751 0-71.058 0z" fill="#80b4fb"/><path d="m248.484 269.707v-79.51c-12.436 0-23.714 0-28.013 0v79.51c0 2.961 2.4 5.361 5.361 5.361h28.013c-2.961 0-5.361-2.4-5.361-5.361z" fill="#61a2f9"/><path d="m248.388 275.068h15.223v-84.871c-5.012 0-10.211 0-15.223 0z" fill="#9dc6fb"/><path d="m286.168 162.826h-60.336c-2.961 0-5.361 2.4-5.361 5.361v24.039h71.058v-24.039c0-2.961-2.4-5.361-5.361-5.361z" fill="#9dc6fb"/><path d="m253.845 162.826h-28.013c-2.961 0-5.361 2.4-5.361 5.361v24.039h27.917v-24.039c0-2.961 2.496-5.361 5.457-5.361z" fill="#80b4fb"/><path d="m220.471 372.134v79.51c0 2.961 2.4 5.361 5.361 5.361h60.336c2.961 0 5.361-2.4 5.361-5.361v-79.51c-10.307 0-60.751 0-71.058 0z" fill="#80b4fb"/><path d="m248.484 451.644v-79.51c-12.436 0-23.714 0-28.013 0v79.51c0 2.961 2.4 5.361 5.361 5.361h28.013c-2.961 0-5.361-2.4-5.361-5.361z" fill="#61a2f9"/><path d="m248.388 457.005h15.223v-84.871c-5.012 0-10.211 0-15.223 0z" fill="#9dc6fb"/><path d="m286.168 344.763h-60.336c-2.961 0-5.361 2.4-5.361 5.361v24.039h71.058v-24.039c0-2.961-2.4-5.361-5.361-5.361z" fill="#9dc6fb"/><path d="m253.845 344.763h-28.013c-2.961 0-5.361 2.4-5.361 5.361v24.039h28.013v-24.039c0-2.961 2.4-5.361 5.361-5.361z" fill="#80b4fb"/><path d="m328.008 190.197v79.51c0 2.961 2.4 5.361 5.361 5.361h60.336c2.961 0 5.361-2.4 5.361-5.361v-79.51c-10.307 0-60.751 0-71.058 0z" fill="#80b4fb"/><path d="m356.021 269.707v-79.51c-12.436 0-23.714 0-28.013 0v79.51c0 2.961 2.4 5.361 5.361 5.361h28.013c-2.961 0-5.361-2.4-5.361-5.361z" fill="#61a2f9"/><path d="m355.925 275.068h15.223v-84.871c-5.012 0-10.211 0-15.223 0z" fill="#9dc6fb"/><path d="m393.705 162.826h-60.336c-2.961 0-5.361 2.4-5.361 5.361v24.039h71.058v-24.039c0-2.961-2.4-5.361-5.361-5.361z" fill="#9dc6fb"/><path d="m361.382 162.826h-28.013c-2.961 0-5.361 2.4-5.361 5.361v24.039h27.917v-24.039c0-2.961 2.496-5.361 5.457-5.361z" fill="#80b4fb"/></g></svg>