<svg id="Capa_1" enable-background="new 0 0 512 512" height="60" viewBox="0 0 512 512" width="60" xmlns="http://www.w3.org/2000/svg"><g><path d="m468.656 473.034v-349.383h-208.987l-.007-.007h-.402c-1.783.26-3.693-.177-5.297-1.532l-10.94-9.246v360.168z" fill="#f1cb86"/><g fill="#ecb780"><path d="m291.665 123.651h-1.785c.599.079 1.198.079 1.785 0z"/><path d="m259.669 123.651-.007-.007h-.402c-1.783.26-3.693-.177-5.297-1.532l-10.94-9.246v360.168h32.474v-349.383z"/></g><path d="m243.023 471.005h225.633v33.384h-225.633z" fill="#f4d8a5"/><path d="m243.023 471.005h32.474v33.384h-32.474z" fill="#f1cb86"/><path d="m244.826 473.034v-360.168l-91.341-77.816c-3.348-2.853-8.236-2.853-11.584 0l-91.341 77.816v360.168z" fill="#f4d8bc"/><path d="m81.232 86.736-30.672 26.13v360.168h30.672z" fill="#f1cb86"/><path d="m50.56 471.005h66.281v33.384h-66.281z" fill="#ffe2cb"/><path d="m50.56 471.005h30.671v33.384h-30.671z" fill="#f4d8a5"/><path d="m179.425 471.005h65.401v33.384h-65.401z" fill="#ffe2cb"/><path d="m114.542 207.095v93.559h66.303v-93.559c-7.028 0-59.275 0-66.303 0z" fill="#785252"/><path d="m114.542 207.095v93.559h27.333v-93.559c-2.897 0-24.436 0-27.333 0z" fill="#523838"/><path d="m480.513 95.422-110.853-93.237c-1.674-1.408-3.733-2.112-5.792-2.112h-216.175c2.059 0 1.073.704 2.747 2.112l110.853 93.237c1.52 1.278 2.397 3.162 2.397 5.147v21.335c0 3.481.566 5.983-2.358 6.588l.007.007h216.193c2.914-.613 5.377-3.123 5.377-6.595v-21.335c.001-1.986-.877-3.869-2.396-5.147z" fill="#e27a66"/><path d="m301.797 121.98v-26.812c0-2.495-1.103-4.863-3.012-6.469l-105.372-88.627h-45.72c2.059 0 1.073.704 2.747 2.112l110.853 93.237c1.52 1.278 2.397 3.162 2.397 5.147v21.335c0 3.481.566 5.983-2.358 6.588l.007.007h40.025c.713-1.49.433-3.758.433-6.518z" fill="#dd544f"/><path d="m264.338 95.349-110.853-93.237c-3.348-2.816-8.236-2.816-11.584 0l-110.852 93.237c-1.52 1.278-2.397 3.162-2.397 5.147v21.335c0 5.718 6.681 8.828 11.056 5.148l102.194-85.954c3.348-2.816 8.236-2.816 11.584 0l102.194 85.954c4.375 3.68 11.056.57 11.056-5.148v-21.335c-.001-1.985-.878-3.869-2.398-5.147z" fill="#ddeafb"/><g><path d="m73.076 85.19v-22.77c0-1.034.226-2.041.643-2.96l-42.67 35.889c-1.52 1.278-2.397 3.162-2.397 5.147v21.335c0 5.718 6.681 8.828 11.056 5.148l41.176-34.632c-3.916.33-7.808-2.649-7.808-7.157z" fill="#bed8fb"/></g><path d="m274.433 207.095v51.003c0 2.763 2.24 5.002 5.002 5.002h56.299c2.763 0 5.002-2.239 5.002-5.002v-51.003c-7.028 0-59.275 0-66.303 0z" fill="#80b4fb"/><path d="m300.565 258.098v-51.003c-12.224 0-23.177 0-26.133 0v51.003c0 2.763 2.24 5.002 5.002 5.002h26.133c-2.762.001-5.002-2.239-5.002-5.002z" fill="#61a2f9"/><path d="m299.973 263.101h15.223v-56.005c-4.998 0-10.225 0-15.223 0z" fill="#9dc6fb"/><path d="m335.734 180.677h-56.299c-2.763 0-5.002 2.239-5.002 5.003v22.431h66.304v-22.431c-.001-2.764-2.241-5.003-5.003-5.003z" fill="#9dc6fb"/><path d="m304.975 180.677h-25.54c-2.763 0-5.002 2.239-5.002 5.003v22.431h25.54v-22.431c0-2.764 2.239-5.003 5.002-5.003z" fill="#80b4fb"/><path d="m140.082 300.654h15.223v-93.559c-4.998 0-10.225 0-15.223 0z" fill="#9d6b6b"/><path d="m175.843 180.677h-56.299c-2.763 0-5.002 2.239-5.002 5.003v22.431h66.304v-22.431c-.001-2.764-2.24-5.003-5.003-5.003z" fill="#9d6b6b"/><path d="m145.084 180.677h-25.54c-2.763 0-5.002 2.239-5.002 5.003v22.431h25.54v-22.431c0-2.764 2.239-5.003 5.002-5.003z" fill="#785252"/><g><path d="m468.656 308.266h-418.096c-4.204 0-7.611-3.408-7.611-7.612s3.408-7.611 7.611-7.611h418.096c4.204 0 7.612 3.408 7.612 7.611s-3.408 7.612-7.612 7.612z" fill="#ecb780"/></g><path d="m114.542 410.83v93.559h66.303v-93.559c-7.028 0-59.275 0-66.303 0z" fill="#785252"/><path d="m114.542 410.83v93.559h26.995v-93.559c-2.862 0-24.134 0-26.995 0z" fill="#523838"/><path d="m140.082 504.388h15.223v-93.558c-4.998 0-10.225 0-15.223 0z" fill="#9d6b6b"/><path d="m175.843 384.411h-56.299c-2.763 0-5.002 2.239-5.002 5.003v22.431h66.304v-22.431c-.001-2.763-2.24-5.003-5.003-5.003z" fill="#9d6b6b"/><path d="m145.084 384.411h-25.54c-2.763 0-5.002 2.239-5.002 5.003v22.431h25.54v-22.431c0-2.763 2.239-5.003 5.002-5.003z" fill="#785252"/><g><path d="m475.737 512h-433.65c-4.204 0-7.611-3.408-7.611-7.612s3.408-7.611 7.611-7.611h433.65c4.204 0 7.611 3.408 7.611 7.611s-3.407 7.612-7.611 7.612z" fill="#ccf49f"/></g><path d="m372.746 207.095v51.003c0 2.763 2.24 5.002 5.002 5.002h56.299c2.763 0 5.002-2.239 5.002-5.002v-51.003c-7.027 0-59.275 0-66.303 0z" fill="#80b4fb"/><path d="m398.879 258.098v-51.003c-12.224 0-23.177 0-26.133 0v51.003c0 2.763 2.24 5.002 5.002 5.002h26.133c-2.762.001-5.002-2.239-5.002-5.002z" fill="#61a2f9"/><path d="m398.286 263.101h15.223v-56.005c-4.998 0-10.225 0-15.223 0z" fill="#9dc6fb"/><path d="m434.047 180.677h-56.299c-2.763 0-5.002 2.239-5.002 5.003v22.431h66.304v-22.431c0-2.764-2.24-5.003-5.003-5.003z" fill="#9dc6fb"/><path d="m403.289 180.677h-25.54c-2.763 0-5.002 2.239-5.002 5.003v22.431h25.54v-22.431c-.001-2.764 2.239-5.003 5.002-5.003z" fill="#80b4fb"/><path d="m274.433 377.446v51.003c0 2.763 2.24 5.002 5.002 5.002h56.299c2.763 0 5.002-2.239 5.002-5.002v-51.003c-7.028 0-59.275 0-66.303 0z" fill="#80b4fb"/><path d="m300.565 428.449v-51.003c-12.224 0-23.177 0-26.133 0v51.003c0 2.763 2.24 5.002 5.002 5.002h26.133c-2.762 0-5.002-2.239-5.002-5.002z" fill="#61a2f9"/><path d="m299.973 433.451h15.223v-56.005c-4.998 0-10.225 0-15.223 0z" fill="#9dc6fb"/><path d="m335.734 351.027h-56.299c-2.763 0-5.002 2.239-5.002 5.003v22.431h66.304v-22.431c-.001-2.763-2.241-5.003-5.003-5.003z" fill="#9dc6fb"/><path d="m304.975 351.027h-25.54c-2.763 0-5.002 2.239-5.002 5.003v22.431h25.54v-22.431c0-2.763 2.239-5.003 5.002-5.003z" fill="#80b4fb"/><path d="m372.746 377.446v51.003c0 2.763 2.24 5.002 5.002 5.002h56.299c2.763 0 5.002-2.239 5.002-5.002v-51.003c-7.027 0-59.275 0-66.303 0z" fill="#80b4fb"/><path d="m398.879 428.449v-51.003c-12.224 0-23.177 0-26.133 0v51.003c0 2.763 2.24 5.002 5.002 5.002h26.133c-2.762 0-5.002-2.239-5.002-5.002z" fill="#61a2f9"/><path d="m398.286 433.451h15.223v-56.005c-4.998 0-10.225 0-15.223 0z" fill="#9dc6fb"/><path d="m434.047 351.027h-56.299c-2.763 0-5.002 2.239-5.002 5.003v22.431h66.304v-22.431c0-2.763-2.24-5.003-5.003-5.003z" fill="#9dc6fb"/><path d="m403.289 351.027h-25.54c-2.763 0-5.002 2.239-5.002 5.003v22.431h25.54v-22.431c-.001-2.763 2.239-5.003 5.002-5.003z" fill="#80b4fb"/></g></svg>