<svg id="Capa_1" enable-background="new 0 0 512 512" height="60" viewBox="0 0 512 512" width="60" xmlns="http://www.w3.org/2000/svg"><g><path d="m63.754 141.139h384.492v332.243h-384.492z" fill="#eaaadd"/><path d="m63.754 141.139h43.823v332.243h-43.823z" fill="#e490d0"/><g><path d="m212.177 404.497h43.823v99.892h-43.823z" fill="#61a2f9"/></g><g><path d="m256 404.497h43.823v99.892h-43.823z" fill="#80b4fb"/></g><path d="m212.177 366.439h87.647v40.503h-87.647z" fill="#9dc6fb"/><path d="m212.177 366.439h43.823v40.503h-43.823z" fill="#80b4fb"/><path d="m51.587 111.824v26.776c0 4.579 3.712 8.29 8.29 8.29h392.247c4.578 0 8.29-3.712 8.29-8.29v-26.776z" fill="#ddeafb"/><path d="m95.41 138.6v-26.776h-43.823v26.776c0 4.579 3.712 8.29 8.29 8.29h43.823c-4.578 0-8.29-3.711-8.29-8.29z" fill="#bed8fb"/><path d="m327.223 471.352h121.023v33.037h-121.023z" fill="#ffbee4"/><path d="m63.754 471.352h120.119v33.037h-120.119z" fill="#ffbee4"/><path d="m63.754 471.352h43.824v33.037h-43.824z" fill="#eaaadd"/><path d="m467.655 0h-423.31c-3.413 0-6.179 2.766-6.179 6.179v101.495c0 3.413 2.766 6.179 6.179 6.179h423.311c3.413 0 6.179-2.766 6.179-6.179v-101.495c-.001-3.413-2.767-6.179-6.18-6.179z" fill="#938493"/><path d="m81.989 107.675v-101.496c0-3.413 2.766-6.179 6.179-6.179h-43.823c-3.413 0-6.179 2.766-6.179 6.179v101.496c0 3.413 2.766 6.179 6.179 6.179h43.823c-3.413 0-6.179-2.767-6.179-6.179z" fill="#7b6c79"/><g><path d="m296.779 366.439h33.037v137.949h-33.037z" fill="#bed8fb"/></g><g><path d="m182.185 366.439h33.037v137.949h-33.037z" fill="#9dc6fb"/></g><path d="m329.994 335.628h-147.988c-4.349 0-7.874 3.526-7.874 7.874v17.289c0 4.348 3.525 7.874 7.874 7.874h147.989c4.349 0 7.874-3.526 7.874-7.874v-17.289c0-4.348-3.526-7.874-7.875-7.874z" fill="#ddeafb"/><path d="m210.451 360.791v-17.289c0-4.348 3.525-7.874 7.874-7.874h-36.319c-4.349 0-7.874 3.526-7.874 7.874v17.289c0 4.348 3.526 7.874 7.874 7.874h36.319c-4.349 0-7.874-3.526-7.874-7.874z" fill="#bed8fb"/><g><path d="m457.316 512h-402.632c-4.204 0-7.611-3.408-7.611-7.612s3.408-7.611 7.611-7.611h402.632c4.204 0 7.612 3.408 7.612 7.611-.001 4.204-3.408 7.612-7.612 7.612z" fill="#ccf49f"/></g><path d="m104.59 212.081v81.233c0 3.027 2.454 5.48 5.48 5.48h61.678c3.027 0 5.48-2.453 5.48-5.48v-81.233c-10.535 0-62.102 0-72.638 0z" fill="#80b4fb"/><path d="m133.847 293.314v-81.233c-12.957 0-24.792 0-29.257 0v81.233c0 3.027 2.453 5.48 5.48 5.48h29.257c-3.026 0-5.48-2.453-5.48-5.48z" fill="#61a2f9"/><path d="m133.298 298.794h15.223v-86.713c-5.014 0-10.209 0-15.223 0z" fill="#9dc6fb"/><path d="m171.748 184.056h-61.678c-3.027 0-5.48 2.453-5.48 5.481v24.574h72.638v-24.574c0-3.027-2.453-5.481-5.48-5.481z" fill="#9dc6fb"/><path d="m139.328 184.057h-29.258c-3.027 0-5.48 2.453-5.48 5.48v24.574h29.257v-24.574c0-3.027 2.454-5.48 5.481-5.48z" fill="#80b4fb"/><path d="m219.681 212.081v81.233c0 3.027 2.454 5.48 5.48 5.48h61.678c3.027 0 5.48-2.453 5.48-5.48v-81.233c-10.536 0-62.102 0-72.638 0z" fill="#80b4fb"/><path d="m248.938 293.314v-81.233c-12.957 0-24.792 0-29.257 0v81.233c0 3.027 2.453 5.48 5.48 5.48h29.257c-3.026 0-5.48-2.453-5.48-5.48z" fill="#61a2f9"/><path d="m248.388 298.794h15.223v-86.713c-5.014 0-10.209 0-15.223 0z" fill="#9dc6fb"/><path d="m286.839 184.056h-61.678c-3.027 0-5.48 2.453-5.48 5.481v24.574h72.638v-24.574c0-3.027-2.453-5.481-5.48-5.481z" fill="#9dc6fb"/><path d="m254.418 184.057h-29.257c-3.027 0-5.48 2.453-5.48 5.48v24.574h29.257v-24.574c0-3.027 2.454-5.48 5.48-5.48z" fill="#80b4fb"/><path d="m334.771 212.081v81.233c0 3.027 2.454 5.48 5.48 5.48h61.678c3.026 0 5.48-2.453 5.48-5.48v-81.233c-10.535 0-62.102 0-72.638 0z" fill="#80b4fb"/><path d="m364.028 293.314v-81.233c-12.957 0-24.792 0-29.257 0v81.233c0 3.027 2.453 5.48 5.48 5.48h29.257c-3.026 0-5.48-2.453-5.48-5.48z" fill="#61a2f9"/><path d="m363.479 298.794h15.223v-86.713c-5.014 0-10.209 0-15.223 0z" fill="#9dc6fb"/><path d="m401.929 184.056h-61.678c-3.027 0-5.48 2.453-5.48 5.481v24.574h72.639v-24.574c0-3.027-2.454-5.481-5.481-5.481z" fill="#9dc6fb"/><path d="m369.509 184.057h-29.257c-3.026 0-5.48 2.453-5.48 5.48v24.574h29.257v-24.574c-.001-3.027 2.453-5.48 5.48-5.48z" fill="#80b4fb"/></g></svg>