<svg id="Capa_1" enable-background="new 0 0 512 512" height="60" viewBox="0 0 512 512" width="60" xmlns="http://www.w3.org/2000/svg"><g><g><path d="m106.9 61.149c-4.142 0-7.5-3.357-7.5-7.5v-14.01c0-4.143 3.358-7.5 7.5-7.5s7.5 3.357 7.5 7.5v14.011c0 4.142-3.358 7.499-7.5 7.499z" fill="#bed8fb"/></g><g><path d="m256 61.149c-4.142 0-7.5-3.357-7.5-7.5v-14.01c0-4.143 3.358-7.5 7.5-7.5s7.5 3.357 7.5 7.5v14.011c0 4.142-3.358 7.499-7.5 7.499z" fill="#bed8fb"/></g><g><path d="m405.1 61.149c-4.142 0-7.5-3.357-7.5-7.5v-14.01c0-4.143 3.358-7.5 7.5-7.5s7.5 3.357 7.5 7.5v14.011c0 4.142-3.358 7.499-7.5 7.499z" fill="#bed8fb"/></g><g><path d="m7.5 238.117c-4.142 0-7.5-3.357-7.5-7.5v-37.104c0-4.143 3.358-7.5 7.5-7.5s7.5 3.357 7.5 7.5v37.104c0 4.143-3.358 7.5-7.5 7.5z" fill="#aa8080"/></g><g><path d="m504.5 238.117c-4.142 0-7.5-3.357-7.5-7.5v-37.104c0-4.143 3.358-7.5 7.5-7.5s7.5 3.357 7.5 7.5v37.104c0 4.143-3.358 7.5-7.5 7.5z" fill="#aa8080"/></g><g><path d="m405.1 238.117c-4.142 0-7.5-3.357-7.5-7.5v-37.104c0-4.143 3.358-7.5 7.5-7.5s7.5 3.357 7.5 7.5v37.104c0 4.143-3.358 7.5-7.5 7.5z" fill="#aa8080"/></g><g><path d="m454.8 238.117c-4.142 0-7.5-3.357-7.5-7.5v-37.104c0-4.143 3.358-7.5 7.5-7.5s7.5 3.357 7.5 7.5v37.104c0 4.143-3.358 7.5-7.5 7.5z" fill="#aa8080"/></g><g><path d="m305.7 238.117c-4.142 0-7.5-3.357-7.5-7.5v-37.104c0-4.143 3.358-7.5 7.5-7.5s7.5 3.357 7.5 7.5v37.104c0 4.143-3.358 7.5-7.5 7.5z" fill="#aa8080"/></g><g><path d="m355.4 238.117c-4.142 0-7.5-3.357-7.5-7.5v-37.104c0-4.143 3.358-7.5 7.5-7.5s7.5 3.357 7.5 7.5v37.104c0 4.143-3.358 7.5-7.5 7.5z" fill="#aa8080"/></g><g><path d="m206.3 238.117c-4.142 0-7.5-3.357-7.5-7.5v-37.104c0-4.143 3.358-7.5 7.5-7.5s7.5 3.357 7.5 7.5v37.104c0 4.143-3.358 7.5-7.5 7.5z" fill="#aa8080"/></g><g><path d="m256 238.117c-4.142 0-7.5-3.357-7.5-7.5v-37.104c0-4.143 3.358-7.5 7.5-7.5s7.5 3.357 7.5 7.5v37.104c0 4.143-3.358 7.5-7.5 7.5z" fill="#aa8080"/></g><g><path d="m106.9 238.117c-4.142 0-7.5-3.357-7.5-7.5v-37.104c0-4.143 3.358-7.5 7.5-7.5s7.5 3.357 7.5 7.5v37.104c0 4.143-3.358 7.5-7.5 7.5z" fill="#aa8080"/></g><g><path d="m156.6 238.117c-4.142 0-7.5-3.357-7.5-7.5v-37.104c0-4.143 3.358-7.5 7.5-7.5s7.5 3.357 7.5 7.5v37.104c0 4.143-3.358 7.5-7.5 7.5z" fill="#aa8080"/></g><g><path d="m57.2 238.117c-4.142 0-7.5-3.357-7.5-7.5v-37.104c0-4.143 3.358-7.5 7.5-7.5s7.5 3.357 7.5 7.5v37.104c0 4.143-3.358 7.5-7.5 7.5z" fill="#aa8080"/></g><g fill="#785252"><path d="m7.5 416.418h49.7v34.5h-49.7z"/><path d="m148.763 416.418h61.456v34.5h-61.456z"/><path d="m301.781 416.418h61.456v34.5h-61.456z"/><path d="m454.8 416.418h49.7v34.5h-49.7z"/></g><path d="m7.5 416.418h24.85v34.5h-24.85z" fill="#523838"/><path d="m148.762 416.418h24.85v34.5h-24.85z" fill="#523838"/><path d="m301.781 416.418h24.85v34.5h-24.85z" fill="#523838"/><path d="m454.8 416.418h24.85v34.5h-24.85z" fill="#523838"/><g><path d="m405.1 199.619c-4.142 0-7.5-3.357-7.5-7.5v-108.201c0-4.143 3.358-7.5 7.5-7.5s7.5 3.357 7.5 7.5v108.201c0 4.143-3.358 7.5-7.5 7.5z" fill="#938493"/></g><g><path d="m256 199.619c-4.142 0-7.5-3.357-7.5-7.5v-108.201c0-4.143 3.358-7.5 7.5-7.5s7.5 3.357 7.5 7.5v108.201c0 4.143-3.358 7.5-7.5 7.5z" fill="#938493"/></g><g><path d="m106.9 199.619c-4.142 0-7.5-3.357-7.5-7.5v-108.201c0-4.143 3.358-7.5 7.5-7.5s7.5 3.357 7.5 7.5v108.201c0 4.143-3.358 7.5-7.5 7.5z" fill="#938493"/></g><path d="m57.2 419.842v-83.416c0-25.284 20.497-45.781 45.781-45.781s45.781 20.497 45.781 45.781v83.416h61.456v-83.416c0-25.284 20.497-45.781 45.781-45.781s45.781 20.497 45.781 45.781v83.416h61.456v-83.416c0-25.284 20.497-45.781 45.781-45.781s45.781 20.497 45.781 45.781v83.416h49.7v-189.225h-496.998v189.225z" fill="#aa8080"/><path d="m7.5 230.617h24.85v189.225h-24.85z" fill="#8b5e5e"/><path d="m127.831 290.645c-4.309 0-8.472.608-12.425 1.721 19.244 5.417 33.356 23.085 33.356 44.061v83.416h24.85v-83.416c.001-25.285-20.497-45.782-45.781-45.782z" fill="#8b5e5e"/><path d="m280.85 290.645c-4.308 0-8.472.608-12.425 1.721 19.244 5.417 33.356 23.085 33.356 44.061v83.416h24.85v-83.416c0-25.285-20.497-45.782-45.781-45.782z" fill="#8b5e5e"/><path d="m433.869 290.645c-4.308 0-8.472.608-12.425 1.721 19.244 5.417 33.356 23.085 33.356 44.061v83.416h24.85v-83.416c0-25.285-20.497-45.782-45.781-45.782z" fill="#8b5e5e"/><path d="m7.5 449.343v21.401c0 5.035 4.082 9.117 9.117 9.117h478.766c5.035 0 9.117-4.082 9.117-9.117v-21.401z" fill="#ccf49f"/><path d="m32.35 470.744v-21.401h-24.85v21.401c0 5.035 4.082 9.117 9.117 9.117h24.85c-5.035 0-9.117-4.082-9.117-9.117z" fill="#b3e59f"/><path d="m86.809 53.65 4.134 28.09c.547 3.718 3.738 6.474 7.496 6.474h16.922c3.758 0 6.949-2.755 7.496-6.474l4.134-28.09z" fill="#f1cb86"/><path d="m108.443 81.739-4.134-28.09h-17.5l4.134 28.09c.547 3.718 3.738 6.474 7.496 6.474h16.922c.097 0 .192-.01.289-.013-3.631-.138-6.674-2.839-7.207-6.461z" fill="#ecb780"/><g><path d="m128.999 61.149h-44.198c-4.142 0-7.5-3.357-7.5-7.5s3.358-7.5 7.5-7.5h44.197c4.142 0 7.5 3.357 7.5 7.5s-3.357 7.5-7.499 7.5z" fill="#ddeafb"/></g><path d="m235.909 53.65 4.134 28.09c.547 3.718 3.738 6.474 7.496 6.474h16.922c3.759 0 6.949-2.755 7.496-6.474l4.134-28.09z" fill="#f1cb86"/><path d="m257.543 81.739-4.134-28.09h-17.5l4.134 28.09c.547 3.718 3.737 6.474 7.496 6.474h16.922c.097 0 .192-.01.289-.013-3.631-.138-6.674-2.839-7.207-6.461z" fill="#ecb780"/><g><path d="m278.098 61.149h-44.197c-4.142 0-7.5-3.357-7.5-7.5s3.358-7.5 7.5-7.5h44.197c4.142 0 7.5 3.357 7.5 7.5s-3.358 7.5-7.5 7.5z" fill="#ddeafb"/></g><path d="m385.009 53.65 4.134 28.09c.547 3.718 3.737 6.474 7.496 6.474h16.922c3.759 0 6.949-2.755 7.496-6.474l4.134-28.09z" fill="#f1cb86"/><path d="m406.643 81.739-4.134-28.09h-17.5l4.134 28.09c.547 3.718 3.738 6.474 7.496 6.474h16.923c.097 0 .192-.01.289-.013-3.632-.138-6.675-2.839-7.208-6.461z" fill="#ecb780"/><g><path d="m427.198 61.149h-44.197c-4.142 0-7.5-3.357-7.5-7.5s3.358-7.5 7.5-7.5h44.197c4.142 0 7.5 3.357 7.5 7.5s-3.357 7.5-7.5 7.5z" fill="#ddeafb"/></g><g><path d="m504.5 238.117h-497c-4.142 0-7.5-3.357-7.5-7.5s3.358-7.5 7.5-7.5h497c4.142 0 7.5 3.357 7.5 7.5s-3.358 7.5-7.5 7.5z" fill="#c3a2a2"/></g><g><path d="m504.5 201.014h-497c-4.142 0-7.5-3.357-7.5-7.5s3.358-7.5 7.5-7.5h497c4.142 0 7.5 3.357 7.5 7.5s-3.358 7.5-7.5 7.5z" fill="#c3a2a2"/></g></g></svg>