<svg id="Capa_1" enable-background="new 0 0 512 512" height="60" viewBox="0 0 512 512" width="60" xmlns="http://www.w3.org/2000/svg"><g><g><path d="m310.117 382.755-59.111-60.549c-2.894-2.964-2.836-7.712.127-10.606s7.712-2.837 10.606.127l59.111 60.549c2.894 2.964 2.836 7.712-.127 10.606-2.963 2.893-7.711 2.838-10.606-.127z" fill="#bed8fb"/></g><g><path d="m192.013 382.89c-2.964-2.894-3.021-7.642-.127-10.606l59.119-60.556c2.894-2.964 7.642-3.021 10.606-.127s3.021 7.642.127 10.606l-59.119 60.556c-2.893 2.963-7.641 3.021-10.606.127z" fill="#bed8fb"/></g><path d="m207.18 292.945h98v29.8h-98z" fill="#9dc6fb"/><path d="m207.18 292.945h41.693v29.8h-41.693z" fill="#80b4fb"/><path d="m207.18 264.314h98v29.215h-98z" fill="#ddeafb"/><path d="m207.18 264.314h41.693v29.215h-41.693z" fill="#bed8fb"/><g><path d="m130.425 75.69c-4.142 0-7.5-3.358-7.5-7.5v-60.69c0-4.142 3.358-7.5 7.5-7.5s7.5 3.358 7.5 7.5v60.69c0 4.143-3.358 7.5-7.5 7.5z" fill="#ddeafb"/></g><g><path d="m382.32 75.69c-4.142 0-7.5-3.358-7.5-7.5v-60.69c0-4.142 3.358-7.5 7.5-7.5s7.5 3.358 7.5 7.5v60.69c0 4.143-3.358 7.5-7.5 7.5z" fill="#ddeafb"/></g><path d="m168.428 59.312h-76.007c-3.923 0-7.103 3.269-7.103 7.302v47.077h90.213v-47.077c0-4.033-3.18-7.302-7.103-7.302z" fill="#9dc6fb"/><path d="m129.421 59.312h-37c-3.923 0-7.103 3.269-7.103 7.302v47.076h37v-47.076c0-4.033 3.18-7.302 7.103-7.302z" fill="#80b4fb"/><path d="m420.323 59.312h-76.008c-3.923 0-7.103 3.269-7.103 7.302v47.077h90.213v-47.077c.001-4.033-3.179-7.302-7.102-7.302z" fill="#9dc6fb"/><path d="m381.316 59.312h-37c-3.923 0-7.103 3.269-7.103 7.302v47.076h37v-47.076c0-4.033 3.18-7.302 7.103-7.302z" fill="#80b4fb"/><path d="m203.101 112.21h-145.353c-3.923 0-7.103 3.18-7.103 7.103v385.187h159.559v-385.187c0-3.923-3.18-7.103-7.103-7.103z" fill="#ddeafb"/><path d="m94.748 112.21h-37c-3.923 0-7.103 3.18-7.103 7.103v385.187h37v-385.187c0-3.923 3.18-7.103 7.103-7.103z" fill="#bed8fb"/><path d="m454.996 112.21h-145.353c-3.923 0-7.103 3.18-7.103 7.103v385.187h159.559v-385.187c0-3.923-3.18-7.103-7.103-7.103z" fill="#ddeafb"/><path d="m346.643 112.21h-37c-3.923 0-7.103 3.18-7.103 7.103v385.187h37v-385.187c0-3.923 3.18-7.103 7.103-7.103z" fill="#bed8fb"/><path d="m426.72 143.661h-26.342c-2.037 0-3.688 1.651-3.688 3.688v21.839c0 2.037 1.651 3.688 3.688 3.688h26.342c2.037 0 3.688-1.651 3.688-3.688v-21.839c0-2.036-1.651-3.688-3.688-3.688z" fill="#9dc6fb"/><path d="m414.317 169.188v-21.839c0-2.037 1.651-3.688 3.688-3.688h-17.627c-2.037 0-3.688 1.651-3.688 3.688v21.839c0 2.037 1.651 3.688 3.688 3.688h17.627c-2.037.001-3.688-1.651-3.688-3.688z" fill="#80b4fb"/><g><path d="m467.338 512h-422.676c-4.142 0-7.5-3.358-7.5-7.5s3.358-7.5 7.5-7.5h422.675c4.142 0 7.5 3.358 7.5 7.5s-3.357 7.5-7.499 7.5z" fill="#bed8fb"/></g><path d="m426.72 203.696h-26.342c-2.037 0-3.688 1.651-3.688 3.688v21.839c0 2.037 1.651 3.688 3.688 3.688h26.342c2.037 0 3.688-1.651 3.688-3.688v-21.839c0-2.037-1.651-3.688-3.688-3.688z" fill="#9dc6fb"/><path d="m414.317 229.223v-21.839c0-2.037 1.651-3.688 3.688-3.688h-17.627c-2.037 0-3.688 1.651-3.688 3.688v21.839c0 2.037 1.651 3.688 3.688 3.688h17.627c-2.037 0-3.688-1.651-3.688-3.688z" fill="#80b4fb"/><path d="m426.72 263.73h-26.342c-2.037 0-3.688 1.651-3.688 3.688v21.839c0 2.037 1.651 3.688 3.688 3.688h26.342c2.037 0 3.688-1.651 3.688-3.688v-21.839c0-2.036-1.651-3.688-3.688-3.688z" fill="#9dc6fb"/><path d="m414.317 289.257v-21.839c0-2.037 1.651-3.688 3.688-3.688h-17.627c-2.037 0-3.688 1.651-3.688 3.688v21.839c0 2.037 1.651 3.688 3.688 3.688h17.627c-2.037.001-3.688-1.651-3.688-3.688z" fill="#80b4fb"/><path d="m426.72 323.765h-26.342c-2.037 0-3.688 1.651-3.688 3.688v21.839c0 2.037 1.651 3.688 3.688 3.688h26.342c2.037 0 3.688-1.651 3.688-3.688v-21.839c0-2.037-1.651-3.688-3.688-3.688z" fill="#9dc6fb"/><path d="m414.317 349.292v-21.839c0-2.037 1.651-3.688 3.688-3.688h-17.627c-2.037 0-3.688 1.651-3.688 3.688v21.839c0 2.037 1.651 3.688 3.688 3.688h17.627c-2.037 0-3.688-1.651-3.688-3.688z" fill="#80b4fb"/><path d="m426.72 383.799h-26.342c-2.037 0-3.688 1.651-3.688 3.688v21.839c0 2.037 1.651 3.688 3.688 3.688h26.342c2.037 0 3.688-1.651 3.688-3.688v-21.839c0-2.037-1.651-3.688-3.688-3.688z" fill="#9dc6fb"/><path d="m414.317 409.326v-21.839c0-2.037 1.651-3.688 3.688-3.688h-17.627c-2.037 0-3.688 1.651-3.688 3.688v21.839c0 2.037 1.651 3.688 3.688 3.688h17.627c-2.037 0-3.688-1.651-3.688-3.688z" fill="#80b4fb"/><path d="m426.72 443.833h-26.342c-2.037 0-3.688 1.651-3.688 3.688v21.839c0 2.037 1.651 3.688 3.688 3.688h26.342c2.037 0 3.688-1.651 3.688-3.688v-21.839c0-2.036-1.651-3.688-3.688-3.688z" fill="#9dc6fb"/><path d="m414.317 469.361v-21.839c0-2.037 1.651-3.688 3.688-3.688h-17.627c-2.037 0-3.688 1.651-3.688 3.688v21.839c0 2.037 1.651 3.688 3.688 3.688h17.627c-2.037 0-3.688-1.652-3.688-3.688z" fill="#80b4fb"/><path d="m364.261 143.661h-26.342c-2.037 0-3.688 1.651-3.688 3.688v21.839c0 2.037 1.651 3.688 3.688 3.688h26.342c2.037 0 3.688-1.651 3.688-3.688v-21.839c0-2.036-1.651-3.688-3.688-3.688z" fill="#9dc6fb"/><path d="m351.858 169.188v-21.839c0-2.037 1.651-3.688 3.688-3.688h-17.627c-2.037 0-3.688 1.651-3.688 3.688v21.839c0 2.037 1.651 3.688 3.688 3.688h17.627c-2.037.001-3.688-1.651-3.688-3.688z" fill="#80b4fb"/><path d="m364.261 203.696h-26.342c-2.037 0-3.688 1.651-3.688 3.688v21.839c0 2.037 1.651 3.688 3.688 3.688h26.342c2.037 0 3.688-1.651 3.688-3.688v-21.839c0-2.037-1.651-3.688-3.688-3.688z" fill="#9dc6fb"/><path d="m351.858 229.223v-21.839c0-2.037 1.651-3.688 3.688-3.688h-17.627c-2.037 0-3.688 1.651-3.688 3.688v21.839c0 2.037 1.651 3.688 3.688 3.688h17.627c-2.037 0-3.688-1.651-3.688-3.688z" fill="#80b4fb"/><path d="m364.261 263.73h-26.342c-2.037 0-3.688 1.651-3.688 3.688v21.839c0 2.037 1.651 3.688 3.688 3.688h26.342c2.037 0 3.688-1.651 3.688-3.688v-21.839c0-2.036-1.651-3.688-3.688-3.688z" fill="#9dc6fb"/><path d="m351.858 289.257v-21.839c0-2.037 1.651-3.688 3.688-3.688h-17.627c-2.037 0-3.688 1.651-3.688 3.688v21.839c0 2.037 1.651 3.688 3.688 3.688h17.627c-2.037.001-3.688-1.651-3.688-3.688z" fill="#80b4fb"/><path d="m364.261 323.765h-26.342c-2.037 0-3.688 1.651-3.688 3.688v21.839c0 2.037 1.651 3.688 3.688 3.688h26.342c2.037 0 3.688-1.651 3.688-3.688v-21.839c0-2.037-1.651-3.688-3.688-3.688z" fill="#9dc6fb"/><path d="m351.858 349.292v-21.839c0-2.037 1.651-3.688 3.688-3.688h-17.627c-2.037 0-3.688 1.651-3.688 3.688v21.839c0 2.037 1.651 3.688 3.688 3.688h17.627c-2.037 0-3.688-1.651-3.688-3.688z" fill="#80b4fb"/><path d="m364.261 383.799h-26.342c-2.037 0-3.688 1.651-3.688 3.688v21.839c0 2.037 1.651 3.688 3.688 3.688h26.342c2.037 0 3.688-1.651 3.688-3.688v-21.839c0-2.037-1.651-3.688-3.688-3.688z" fill="#9dc6fb"/><path d="m351.858 409.326v-21.839c0-2.037 1.651-3.688 3.688-3.688h-17.627c-2.037 0-3.688 1.651-3.688 3.688v21.839c0 2.037 1.651 3.688 3.688 3.688h17.627c-2.037 0-3.688-1.651-3.688-3.688z" fill="#80b4fb"/><path d="m364.261 443.833h-26.342c-2.037 0-3.688 1.651-3.688 3.688v21.839c0 2.037 1.651 3.688 3.688 3.688h26.342c2.037 0 3.688-1.651 3.688-3.688v-21.839c0-2.036-1.651-3.688-3.688-3.688z" fill="#9dc6fb"/><path d="m351.858 469.361v-21.839c0-2.037 1.651-3.688 3.688-3.688h-17.627c-2.037 0-3.688 1.651-3.688 3.688v21.839c0 2.037 1.651 3.688 3.688 3.688h17.627c-2.037 0-3.688-1.652-3.688-3.688z" fill="#80b4fb"/><path d="m174.825 143.661h-26.343c-2.037 0-3.688 1.651-3.688 3.688v21.839c0 2.037 1.651 3.688 3.688 3.688h26.343c2.037 0 3.688-1.651 3.688-3.688v-21.839c0-2.036-1.651-3.688-3.688-3.688z" fill="#9dc6fb"/><path d="m162.422 169.188v-21.839c0-2.037 1.651-3.688 3.688-3.688h-17.627c-2.037 0-3.688 1.651-3.688 3.688v21.839c0 2.037 1.651 3.688 3.688 3.688h17.627c-2.037.001-3.688-1.651-3.688-3.688z" fill="#80b4fb"/><path d="m174.825 203.696h-26.343c-2.037 0-3.688 1.651-3.688 3.688v21.839c0 2.037 1.651 3.688 3.688 3.688h26.343c2.037 0 3.688-1.651 3.688-3.688v-21.839c0-2.037-1.651-3.688-3.688-3.688z" fill="#9dc6fb"/><path d="m162.422 229.223v-21.839c0-2.037 1.651-3.688 3.688-3.688h-17.627c-2.037 0-3.688 1.651-3.688 3.688v21.839c0 2.037 1.651 3.688 3.688 3.688h17.627c-2.037 0-3.688-1.651-3.688-3.688z" fill="#80b4fb"/><path d="m174.825 263.73h-26.343c-2.037 0-3.688 1.651-3.688 3.688v21.839c0 2.037 1.651 3.688 3.688 3.688h26.343c2.037 0 3.688-1.651 3.688-3.688v-21.839c0-2.036-1.651-3.688-3.688-3.688z" fill="#9dc6fb"/><path d="m162.422 289.257v-21.839c0-2.037 1.651-3.688 3.688-3.688h-17.627c-2.037 0-3.688 1.651-3.688 3.688v21.839c0 2.037 1.651 3.688 3.688 3.688h17.627c-2.037.001-3.688-1.651-3.688-3.688z" fill="#80b4fb"/><path d="m174.825 323.765h-26.343c-2.037 0-3.688 1.651-3.688 3.688v21.839c0 2.037 1.651 3.688 3.688 3.688h26.343c2.037 0 3.688-1.651 3.688-3.688v-21.839c0-2.037-1.651-3.688-3.688-3.688z" fill="#9dc6fb"/><path d="m162.422 349.292v-21.839c0-2.037 1.651-3.688 3.688-3.688h-17.627c-2.037 0-3.688 1.651-3.688 3.688v21.839c0 2.037 1.651 3.688 3.688 3.688h17.627c-2.037 0-3.688-1.651-3.688-3.688z" fill="#80b4fb"/><path d="m174.825 383.799h-26.343c-2.037 0-3.688 1.651-3.688 3.688v21.839c0 2.037 1.651 3.688 3.688 3.688h26.343c2.037 0 3.688-1.651 3.688-3.688v-21.839c0-2.037-1.651-3.688-3.688-3.688z" fill="#9dc6fb"/><path d="m162.422 409.326v-21.839c0-2.037 1.651-3.688 3.688-3.688h-17.627c-2.037 0-3.688 1.651-3.688 3.688v21.839c0 2.037 1.651 3.688 3.688 3.688h17.627c-2.037 0-3.688-1.651-3.688-3.688z" fill="#80b4fb"/><path d="m174.825 443.833h-26.343c-2.037 0-3.688 1.651-3.688 3.688v21.839c0 2.037 1.651 3.688 3.688 3.688h26.343c2.037 0 3.688-1.651 3.688-3.688v-21.839c0-2.036-1.651-3.688-3.688-3.688z" fill="#9dc6fb"/><path d="m162.422 469.361v-21.839c0-2.037 1.651-3.688 3.688-3.688h-17.627c-2.037 0-3.688 1.651-3.688 3.688v21.839c0 2.037 1.651 3.688 3.688 3.688h17.627c-2.037 0-3.688-1.652-3.688-3.688z" fill="#80b4fb"/><path d="m112.366 143.661h-26.342c-2.037 0-3.688 1.651-3.688 3.688v21.839c0 2.037 1.651 3.688 3.688 3.688h26.342c2.037 0 3.688-1.651 3.688-3.688v-21.839c0-2.036-1.651-3.688-3.688-3.688z" fill="#9dc6fb"/><path d="m99.963 169.188v-21.839c0-2.037 1.651-3.688 3.688-3.688h-17.627c-2.037 0-3.688 1.651-3.688 3.688v21.839c0 2.037 1.651 3.688 3.688 3.688h17.627c-2.037.001-3.688-1.651-3.688-3.688z" fill="#80b4fb"/><path d="m112.366 203.696h-26.342c-2.037 0-3.688 1.651-3.688 3.688v21.839c0 2.037 1.651 3.688 3.688 3.688h26.342c2.037 0 3.688-1.651 3.688-3.688v-21.839c0-2.037-1.651-3.688-3.688-3.688z" fill="#9dc6fb"/><path d="m99.963 229.223v-21.839c0-2.037 1.651-3.688 3.688-3.688h-17.627c-2.037 0-3.688 1.651-3.688 3.688v21.839c0 2.037 1.651 3.688 3.688 3.688h17.627c-2.037 0-3.688-1.651-3.688-3.688z" fill="#80b4fb"/><path d="m112.366 263.73h-26.342c-2.037 0-3.688 1.651-3.688 3.688v21.839c0 2.037 1.651 3.688 3.688 3.688h26.342c2.037 0 3.688-1.651 3.688-3.688v-21.839c0-2.036-1.651-3.688-3.688-3.688z" fill="#9dc6fb"/><path d="m99.963 289.257v-21.839c0-2.037 1.651-3.688 3.688-3.688h-17.627c-2.037 0-3.688 1.651-3.688 3.688v21.839c0 2.037 1.651 3.688 3.688 3.688h17.627c-2.037.001-3.688-1.651-3.688-3.688z" fill="#80b4fb"/><path d="m112.366 323.765h-26.342c-2.037 0-3.688 1.651-3.688 3.688v21.839c0 2.037 1.651 3.688 3.688 3.688h26.342c2.037 0 3.688-1.651 3.688-3.688v-21.839c0-2.037-1.651-3.688-3.688-3.688z" fill="#9dc6fb"/><path d="m99.963 349.292v-21.839c0-2.037 1.651-3.688 3.688-3.688h-17.627c-2.037 0-3.688 1.651-3.688 3.688v21.839c0 2.037 1.651 3.688 3.688 3.688h17.627c-2.037 0-3.688-1.651-3.688-3.688z" fill="#80b4fb"/><path d="m112.366 383.799h-26.342c-2.037 0-3.688 1.651-3.688 3.688v21.839c0 2.037 1.651 3.688 3.688 3.688h26.342c2.037 0 3.688-1.651 3.688-3.688v-21.839c0-2.037-1.651-3.688-3.688-3.688z" fill="#9dc6fb"/><path d="m99.963 409.326v-21.839c0-2.037 1.651-3.688 3.688-3.688h-17.627c-2.037 0-3.688 1.651-3.688 3.688v21.839c0 2.037 1.651 3.688 3.688 3.688h17.627c-2.037 0-3.688-1.651-3.688-3.688z" fill="#80b4fb"/><path d="m112.366 443.833h-26.342c-2.037 0-3.688 1.651-3.688 3.688v21.839c0 2.037 1.651 3.688 3.688 3.688h26.342c2.037 0 3.688-1.651 3.688-3.688v-21.839c0-2.036-1.651-3.688-3.688-3.688z" fill="#9dc6fb"/><path d="m99.963 469.361v-21.839c0-2.037 1.651-3.688 3.688-3.688h-17.627c-2.037 0-3.688 1.651-3.688 3.688v21.839c0 2.037 1.651 3.688 3.688 3.688h17.627c-2.037 0-3.688-1.652-3.688-3.688z" fill="#80b4fb"/></g></svg>