<svg id="Capa_1" enable-background="new 0 0 512 512" height="60" viewBox="0 0 512 512" width="60" xmlns="http://www.w3.org/2000/svg"><g><path d="m225.78 338.957h59.116v31.748h-59.116z" fill="#a298a5"/><path d="m225.78 338.957h30.01v31.748h-30.01z" fill="#938493"/><path d="m225.78 368.534h59.116v135.855h-59.116z" fill="#938493"/><path d="m225.78 368.534h30.01v135.855h-30.01z" fill="#7b6c79"/><path d="m31.215 23.368h198.21v481.021h-198.21z" fill="#ddeafb"/><path d="m31.215 23.368h39.072v481.021h-39.072z" fill="#bed8fb"/><path d="m282.154 23.368h198.21v481.021h-198.21z" fill="#ddeafb"/><path d="m282.154 23.368h39.072v481.021h-39.072z" fill="#bed8fb"/><path d="m237.207 0h-213.775c-1.925 0-3.486 1.561-3.486 3.486v22.604c0 1.925 1.561 3.486 3.486 3.486h213.775c1.925 0 3.486-1.561 3.486-3.486v-22.604c0-1.925-1.561-3.486-3.486-3.486z" fill="#9dc6fb"/><path d="m59.019 26.09v-22.604c0-1.925 1.56-3.486 3.486-3.486h-39.073c-1.925 0-3.486 1.561-3.486 3.486v22.604c0 1.925 1.561 3.486 3.486 3.486h39.072c-1.925 0-3.485-1.561-3.485-3.486z" fill="#80b4fb"/><path d="m488.146 0h-213.775c-1.925 0-3.486 1.561-3.486 3.486v22.604c0 1.925 1.561 3.486 3.486 3.486h213.775c1.925 0 3.486-1.561 3.486-3.486v-22.604c0-1.925-1.561-3.486-3.486-3.486z" fill="#9dc6fb"/><path d="m309.958 26.09v-22.604c0-1.925 1.561-3.486 3.486-3.486h-39.072c-1.925 0-3.486 1.561-3.486 3.486v22.604c0 1.925 1.561 3.486 3.486 3.486h39.072c-1.926 0-3.486-1.561-3.486-3.486z" fill="#80b4fb"/><g fill="#9dc6fb"><path d="m100.026 89.207c-4.204 0-7.611-3.407-7.611-7.611v-9.048c0-4.204 3.408-7.611 7.611-7.611s7.611 3.407 7.611 7.611v9.048c0 4.204-3.408 7.611-7.611 7.611z"/><path d="m69.732 89.207c-4.204 0-7.611-3.407-7.611-7.611v-9.048c0-4.204 3.408-7.611 7.611-7.611 4.204 0 7.612 3.407 7.612 7.611v9.048c-.001 4.204-3.409 7.611-7.612 7.611z"/><path d="m130.32 89.207c-4.204 0-7.611-3.407-7.611-7.611v-9.048c0-4.204 3.408-7.611 7.611-7.611 4.204 0 7.611 3.407 7.611 7.611v9.048c0 4.204-3.408 7.611-7.611 7.611z"/><path d="m100.026 137.03c-4.204 0-7.611-3.407-7.611-7.611v-9.047c0-4.204 3.408-7.612 7.611-7.612s7.611 3.407 7.611 7.612v9.047c0 4.203-3.408 7.611-7.611 7.611z"/><path d="m69.732 137.03c-4.204 0-7.611-3.407-7.611-7.611v-9.047c0-4.204 3.408-7.612 7.611-7.612 4.204 0 7.612 3.407 7.612 7.612v9.047c-.001 4.203-3.409 7.611-7.612 7.611z"/><path d="m130.32 137.03c-4.204 0-7.611-3.407-7.611-7.611v-9.047c0-4.204 3.408-7.612 7.611-7.612 4.204 0 7.611 3.407 7.611 7.612v9.047c0 4.203-3.408 7.611-7.611 7.611z"/><path d="m100.026 184.853c-4.204 0-7.611-3.407-7.611-7.611v-9.048c0-4.204 3.408-7.611 7.611-7.611s7.611 3.407 7.611 7.611v9.048c0 4.204-3.408 7.611-7.611 7.611z"/><path d="m69.732 184.853c-4.204 0-7.611-3.407-7.611-7.611v-9.048c0-4.204 3.408-7.611 7.611-7.611 4.204 0 7.612 3.407 7.612 7.611v9.048c-.001 4.204-3.409 7.611-7.612 7.611z"/><path d="m130.32 184.853c-4.204 0-7.611-3.407-7.611-7.611v-9.048c0-4.204 3.408-7.611 7.611-7.611 4.204 0 7.611 3.407 7.611 7.611v9.048c0 4.204-3.408 7.611-7.611 7.611z"/><path d="m190.908 89.207c-4.204 0-7.611-3.407-7.611-7.611v-9.048c0-4.204 3.408-7.611 7.611-7.611 4.204 0 7.612 3.407 7.612 7.611v9.048c-.001 4.204-3.409 7.611-7.612 7.611z"/><path d="m160.614 89.207c-4.204 0-7.611-3.407-7.611-7.611v-9.048c0-4.204 3.408-7.611 7.611-7.611 4.204 0 7.611 3.407 7.611 7.611v9.048c0 4.204-3.408 7.611-7.611 7.611z"/><path d="m190.908 137.03c-4.204 0-7.611-3.407-7.611-7.611v-9.047c0-4.204 3.408-7.612 7.611-7.612 4.204 0 7.612 3.407 7.612 7.612v9.047c-.001 4.203-3.409 7.611-7.612 7.611z"/><path d="m160.614 137.03c-4.204 0-7.611-3.407-7.611-7.611v-9.047c0-4.204 3.408-7.612 7.611-7.612 4.204 0 7.611 3.407 7.611 7.612v9.047c0 4.203-3.408 7.611-7.611 7.611z"/><path d="m190.908 184.853c-4.204 0-7.611-3.407-7.611-7.611v-9.048c0-4.204 3.408-7.611 7.611-7.611 4.204 0 7.612 3.407 7.612 7.611v9.048c-.001 4.204-3.409 7.611-7.612 7.611z"/><path d="m160.614 184.853c-4.204 0-7.611-3.407-7.611-7.611v-9.048c0-4.204 3.408-7.611 7.611-7.611 4.204 0 7.611 3.407 7.611 7.611v9.048c0 4.204-3.408 7.611-7.611 7.611z"/><path d="m100.026 232.676c-4.204 0-7.611-3.407-7.611-7.611v-9.048c0-4.204 3.408-7.611 7.611-7.611s7.611 3.407 7.611 7.611v9.048c0 4.204-3.408 7.611-7.611 7.611z"/><path d="m69.732 232.676c-4.204 0-7.611-3.407-7.611-7.611v-9.048c0-4.204 3.408-7.611 7.611-7.611 4.204 0 7.612 3.407 7.612 7.611v9.048c-.001 4.204-3.409 7.611-7.612 7.611z"/><path d="m130.32 232.676c-4.204 0-7.611-3.407-7.611-7.611v-9.048c0-4.204 3.408-7.611 7.611-7.611 4.204 0 7.611 3.407 7.611 7.611v9.048c0 4.204-3.408 7.611-7.611 7.611z"/><path d="m100.026 280.499c-4.204 0-7.611-3.407-7.611-7.611v-9.047c0-4.204 3.408-7.612 7.611-7.612s7.611 3.407 7.611 7.612v9.047c0 4.203-3.408 7.611-7.611 7.611z"/><path d="m69.732 280.499c-4.204 0-7.611-3.407-7.611-7.611v-9.047c0-4.204 3.408-7.612 7.611-7.612 4.204 0 7.612 3.407 7.612 7.612v9.047c-.001 4.203-3.409 7.611-7.612 7.611z"/><path d="m130.32 280.499c-4.204 0-7.611-3.407-7.611-7.611v-9.047c0-4.204 3.408-7.612 7.611-7.612 4.204 0 7.611 3.407 7.611 7.612v9.047c0 4.203-3.408 7.611-7.611 7.611z"/><path d="m100.026 328.322c-4.204 0-7.611-3.407-7.611-7.612v-9.048c0-4.204 3.408-7.611 7.611-7.611s7.611 3.407 7.611 7.611v9.048c0 4.205-3.408 7.612-7.611 7.612z"/><path d="m69.732 328.322c-4.204 0-7.611-3.407-7.611-7.612v-9.048c0-4.204 3.408-7.611 7.611-7.611 4.204 0 7.612 3.407 7.612 7.611v9.048c-.001 4.205-3.409 7.612-7.612 7.612z"/><path d="m130.32 328.322c-4.204 0-7.611-3.407-7.611-7.612v-9.048c0-4.204 3.408-7.611 7.611-7.611 4.204 0 7.611 3.407 7.611 7.611v9.048c0 4.205-3.408 7.612-7.611 7.612z"/><path d="m190.908 232.676c-4.204 0-7.611-3.407-7.611-7.611v-9.048c0-4.204 3.408-7.611 7.611-7.611 4.204 0 7.612 3.407 7.612 7.611v9.048c-.001 4.204-3.409 7.611-7.612 7.611z"/><path d="m160.614 232.676c-4.204 0-7.611-3.407-7.611-7.611v-9.048c0-4.204 3.408-7.611 7.611-7.611 4.204 0 7.611 3.407 7.611 7.611v9.048c0 4.204-3.408 7.611-7.611 7.611z"/><path d="m190.908 280.499c-4.204 0-7.611-3.407-7.611-7.611v-9.047c0-4.204 3.408-7.612 7.611-7.612 4.204 0 7.612 3.407 7.612 7.612v9.047c-.001 4.203-3.409 7.611-7.612 7.611z"/><path d="m160.614 280.499c-4.204 0-7.611-3.407-7.611-7.611v-9.047c0-4.204 3.408-7.612 7.611-7.612 4.204 0 7.611 3.407 7.611 7.612v9.047c0 4.203-3.408 7.611-7.611 7.611z"/><path d="m190.908 328.322c-4.204 0-7.611-3.407-7.611-7.612v-9.048c0-4.204 3.408-7.611 7.611-7.611 4.204 0 7.612 3.407 7.612 7.611v9.048c-.001 4.205-3.409 7.612-7.612 7.612z"/><path d="m160.614 328.322c-4.204 0-7.611-3.407-7.611-7.612v-9.048c0-4.204 3.408-7.611 7.611-7.611 4.204 0 7.611 3.407 7.611 7.611v9.048c0 4.205-3.408 7.612-7.611 7.612z"/><path d="m100.026 376.145c-4.204 0-7.611-3.407-7.611-7.612v-9.047c0-4.204 3.408-7.612 7.611-7.612s7.611 3.407 7.611 7.612v9.047c0 4.204-3.408 7.612-7.611 7.612z"/><path d="m69.732 376.145c-4.204 0-7.611-3.407-7.611-7.612v-9.047c0-4.204 3.408-7.612 7.611-7.612 4.204 0 7.612 3.407 7.612 7.612v9.047c-.001 4.204-3.409 7.612-7.612 7.612z"/><path d="m130.32 376.145c-4.204 0-7.611-3.407-7.611-7.612v-9.047c0-4.204 3.408-7.612 7.611-7.612 4.204 0 7.611 3.407 7.611 7.612v9.047c0 4.204-3.408 7.612-7.611 7.612z"/><path d="m100.026 423.968c-4.204 0-7.611-3.407-7.611-7.612v-9.048c0-4.204 3.408-7.611 7.611-7.611s7.611 3.407 7.611 7.611v9.048c0 4.205-3.408 7.612-7.611 7.612z"/><path d="m69.732 423.968c-4.204 0-7.611-3.407-7.611-7.612v-9.048c0-4.204 3.408-7.611 7.611-7.611 4.204 0 7.612 3.407 7.612 7.611v9.048c-.001 4.205-3.409 7.612-7.612 7.612z"/><path d="m130.32 423.968c-4.204 0-7.611-3.407-7.611-7.612v-9.048c0-4.204 3.408-7.611 7.611-7.611 4.204 0 7.611 3.407 7.611 7.611v9.048c0 4.205-3.408 7.612-7.611 7.612z"/><path d="m69.732 471.791c-4.204 0-7.611-3.407-7.611-7.612v-9.047c0-4.204 3.408-7.612 7.611-7.612 4.204 0 7.612 3.407 7.612 7.612v9.047c-.001 4.205-3.409 7.612-7.612 7.612z"/><path d="m190.908 376.145c-4.204 0-7.611-3.407-7.611-7.612v-9.047c0-4.204 3.408-7.612 7.611-7.612 4.204 0 7.612 3.407 7.612 7.612v9.047c-.001 4.204-3.409 7.612-7.612 7.612z"/><path d="m160.614 376.145c-4.204 0-7.611-3.407-7.611-7.612v-9.047c0-4.204 3.408-7.612 7.611-7.612 4.204 0 7.611 3.407 7.611 7.612v9.047c0 4.204-3.408 7.612-7.611 7.612z"/><path d="m190.908 423.968c-4.204 0-7.611-3.407-7.611-7.612v-9.048c0-4.204 3.408-7.611 7.611-7.611 4.204 0 7.612 3.407 7.612 7.611v9.048c-.001 4.205-3.409 7.612-7.612 7.612z"/><path d="m160.614 423.968c-4.204 0-7.611-3.407-7.611-7.612v-9.048c0-4.204 3.408-7.611 7.611-7.611 4.204 0 7.611 3.407 7.611 7.611v9.048c0 4.205-3.408 7.612-7.611 7.612z"/><path d="m190.908 471.791c-4.204 0-7.611-3.407-7.611-7.612v-9.047c0-4.204 3.408-7.612 7.611-7.612 4.204 0 7.612 3.407 7.612 7.612v9.047c-.001 4.205-3.409 7.612-7.612 7.612z"/></g><g><path d="m350.965 89.207c-4.204 0-7.611-3.407-7.611-7.611v-9.048c0-4.204 3.408-7.611 7.611-7.611s7.612 3.407 7.612 7.611v9.048c-.001 4.204-3.408 7.611-7.612 7.611z" fill="#9dc6fb"/></g><g><path d="m320.671 89.207c-4.204 0-7.612-3.407-7.612-7.611v-9.048c0-4.204 3.408-7.611 7.612-7.611s7.611 3.407 7.611 7.611v9.048c0 4.204-3.408 7.611-7.611 7.611z" fill="#9dc6fb"/></g><g><path d="m381.259 89.207c-4.204 0-7.611-3.407-7.611-7.611v-9.048c0-4.204 3.408-7.611 7.611-7.611s7.612 3.407 7.612 7.611v9.048c-.001 4.204-3.409 7.611-7.612 7.611z" fill="#9dc6fb"/></g><g><path d="m350.965 137.03c-4.204 0-7.611-3.407-7.611-7.611v-9.047c0-4.204 3.408-7.612 7.611-7.612s7.612 3.407 7.612 7.612v9.047c-.001 4.203-3.408 7.611-7.612 7.611z" fill="#9dc6fb"/></g><g><path d="m320.671 137.03c-4.204 0-7.612-3.407-7.612-7.611v-9.047c0-4.204 3.408-7.612 7.612-7.612s7.611 3.407 7.611 7.612v9.047c0 4.203-3.408 7.611-7.611 7.611z" fill="#9dc6fb"/></g><g><path d="m381.259 137.03c-4.204 0-7.611-3.407-7.611-7.611v-9.047c0-4.204 3.408-7.612 7.611-7.612s7.612 3.407 7.612 7.612v9.047c-.001 4.203-3.409 7.611-7.612 7.611z" fill="#9dc6fb"/></g><g><path d="m350.965 184.853c-4.204 0-7.611-3.407-7.611-7.611v-9.048c0-4.204 3.408-7.611 7.611-7.611s7.612 3.407 7.612 7.611v9.048c-.001 4.204-3.408 7.611-7.612 7.611z" fill="#9dc6fb"/></g><g><path d="m320.671 184.853c-4.204 0-7.612-3.407-7.612-7.611v-9.048c0-4.204 3.408-7.611 7.612-7.611s7.611 3.407 7.611 7.611v9.048c0 4.204-3.408 7.611-7.611 7.611z" fill="#9dc6fb"/></g><g><path d="m381.259 184.853c-4.204 0-7.611-3.407-7.611-7.611v-9.048c0-4.204 3.408-7.611 7.611-7.611s7.612 3.407 7.612 7.611v9.048c-.001 4.204-3.409 7.611-7.612 7.611z" fill="#9dc6fb"/></g><g><path d="m441.846 89.207c-4.204 0-7.611-3.407-7.611-7.611v-9.048c0-4.204 3.408-7.611 7.611-7.611s7.612 3.407 7.612 7.611v9.048c0 4.204-3.408 7.611-7.612 7.611z" fill="#9dc6fb"/></g><g><path d="m411.553 89.207c-4.204 0-7.611-3.407-7.611-7.611v-9.048c0-4.204 3.408-7.611 7.611-7.611s7.612 3.407 7.612 7.611v9.048c-.001 4.204-3.409 7.611-7.612 7.611z" fill="#9dc6fb"/></g><g><path d="m441.846 137.03c-4.204 0-7.611-3.407-7.611-7.611v-9.047c0-4.204 3.408-7.612 7.611-7.612s7.612 3.407 7.612 7.612v9.047c0 4.203-3.408 7.611-7.612 7.611z" fill="#9dc6fb"/></g><g><path d="m411.553 137.03c-4.204 0-7.611-3.407-7.611-7.611v-9.047c0-4.204 3.408-7.612 7.611-7.612s7.612 3.407 7.612 7.612v9.047c-.001 4.203-3.409 7.611-7.612 7.611z" fill="#9dc6fb"/></g><g><path d="m441.846 184.853c-4.204 0-7.611-3.407-7.611-7.611v-9.048c0-4.204 3.408-7.611 7.611-7.611s7.612 3.407 7.612 7.611v9.048c0 4.204-3.408 7.611-7.612 7.611z" fill="#9dc6fb"/></g><g><path d="m411.553 184.853c-4.204 0-7.611-3.407-7.611-7.611v-9.048c0-4.204 3.408-7.611 7.611-7.611s7.612 3.407 7.612 7.611v9.048c-.001 4.204-3.409 7.611-7.612 7.611z" fill="#9dc6fb"/></g><g><path d="m350.965 232.676c-4.204 0-7.611-3.407-7.611-7.611v-9.048c0-4.204 3.408-7.611 7.611-7.611s7.612 3.407 7.612 7.611v9.048c-.001 4.204-3.408 7.611-7.612 7.611z" fill="#9dc6fb"/></g><g><path d="m320.671 232.676c-4.204 0-7.612-3.407-7.612-7.611v-9.048c0-4.204 3.408-7.611 7.612-7.611s7.611 3.407 7.611 7.611v9.048c0 4.204-3.408 7.611-7.611 7.611z" fill="#9dc6fb"/></g><g><path d="m381.259 232.676c-4.204 0-7.611-3.407-7.611-7.611v-9.048c0-4.204 3.408-7.611 7.611-7.611s7.612 3.407 7.612 7.611v9.048c-.001 4.204-3.409 7.611-7.612 7.611z" fill="#9dc6fb"/></g><g><path d="m350.965 280.499c-4.204 0-7.611-3.407-7.611-7.611v-9.047c0-4.204 3.408-7.612 7.611-7.612s7.612 3.407 7.612 7.612v9.047c-.001 4.203-3.408 7.611-7.612 7.611z" fill="#9dc6fb"/></g><g><path d="m320.671 280.499c-4.204 0-7.612-3.407-7.612-7.611v-9.047c0-4.204 3.408-7.612 7.612-7.612s7.611 3.407 7.611 7.612v9.047c0 4.203-3.408 7.611-7.611 7.611z" fill="#9dc6fb"/></g><g><path d="m381.259 280.499c-4.204 0-7.611-3.407-7.611-7.611v-9.047c0-4.204 3.408-7.612 7.611-7.612s7.612 3.407 7.612 7.612v9.047c-.001 4.203-3.409 7.611-7.612 7.611z" fill="#9dc6fb"/></g><g><path d="m350.965 328.322c-4.204 0-7.611-3.407-7.611-7.612v-9.048c0-4.204 3.408-7.611 7.611-7.611s7.612 3.407 7.612 7.611v9.048c-.001 4.205-3.408 7.612-7.612 7.612z" fill="#9dc6fb"/></g><g><path d="m320.671 328.322c-4.204 0-7.612-3.407-7.612-7.612v-9.048c0-4.204 3.408-7.611 7.612-7.611s7.611 3.407 7.611 7.611v9.048c0 4.205-3.408 7.612-7.611 7.612z" fill="#9dc6fb"/></g><g><path d="m381.259 328.322c-4.204 0-7.611-3.407-7.611-7.612v-9.048c0-4.204 3.408-7.611 7.611-7.611s7.612 3.407 7.612 7.611v9.048c-.001 4.205-3.409 7.612-7.612 7.612z" fill="#9dc6fb"/></g><g><path d="m441.846 232.676c-4.204 0-7.611-3.407-7.611-7.611v-9.048c0-4.204 3.408-7.611 7.611-7.611s7.612 3.407 7.612 7.611v9.048c0 4.204-3.408 7.611-7.612 7.611z" fill="#9dc6fb"/></g><g><path d="m411.553 232.676c-4.204 0-7.611-3.407-7.611-7.611v-9.048c0-4.204 3.408-7.611 7.611-7.611s7.612 3.407 7.612 7.611v9.048c-.001 4.204-3.409 7.611-7.612 7.611z" fill="#9dc6fb"/></g><g><path d="m441.846 280.499c-4.204 0-7.611-3.407-7.611-7.611v-9.047c0-4.204 3.408-7.612 7.611-7.612s7.612 3.407 7.612 7.612v9.047c0 4.203-3.408 7.611-7.612 7.611z" fill="#9dc6fb"/></g><g><path d="m411.553 280.499c-4.204 0-7.611-3.407-7.611-7.611v-9.047c0-4.204 3.408-7.612 7.611-7.612s7.612 3.407 7.612 7.612v9.047c-.001 4.203-3.409 7.611-7.612 7.611z" fill="#9dc6fb"/></g><g><path d="m441.846 328.322c-4.204 0-7.611-3.407-7.611-7.612v-9.048c0-4.204 3.408-7.611 7.611-7.611s7.612 3.407 7.612 7.611v9.048c0 4.205-3.408 7.612-7.612 7.612z" fill="#9dc6fb"/></g><g><path d="m411.553 328.322c-4.204 0-7.611-3.407-7.611-7.612v-9.048c0-4.204 3.408-7.611 7.611-7.611s7.612 3.407 7.612 7.611v9.048c-.001 4.205-3.409 7.612-7.612 7.612z" fill="#9dc6fb"/></g><g><path d="m350.965 376.145c-4.204 0-7.611-3.407-7.611-7.612v-9.047c0-4.204 3.408-7.612 7.611-7.612s7.612 3.407 7.612 7.612v9.047c-.001 4.204-3.408 7.612-7.612 7.612z" fill="#9dc6fb"/></g><g><path d="m320.671 376.145c-4.204 0-7.612-3.407-7.612-7.612v-9.047c0-4.204 3.408-7.612 7.612-7.612s7.611 3.407 7.611 7.612v9.047c0 4.204-3.408 7.612-7.611 7.612z" fill="#9dc6fb"/></g><g><path d="m381.259 376.145c-4.204 0-7.611-3.407-7.611-7.612v-9.047c0-4.204 3.408-7.612 7.611-7.612s7.612 3.407 7.612 7.612v9.047c-.001 4.204-3.409 7.612-7.612 7.612z" fill="#9dc6fb"/></g><g><path d="m350.965 423.968c-4.204 0-7.611-3.407-7.611-7.612v-9.048c0-4.204 3.408-7.611 7.611-7.611s7.612 3.407 7.612 7.611v9.048c-.001 4.205-3.408 7.612-7.612 7.612z" fill="#9dc6fb"/></g><g><path d="m320.671 423.968c-4.204 0-7.612-3.407-7.612-7.612v-9.048c0-4.204 3.408-7.611 7.612-7.611s7.611 3.407 7.611 7.611v9.048c0 4.205-3.408 7.612-7.611 7.612z" fill="#9dc6fb"/></g><g><path d="m381.259 423.968c-4.204 0-7.611-3.407-7.611-7.612v-9.048c0-4.204 3.408-7.611 7.611-7.611s7.612 3.407 7.612 7.611v9.048c-.001 4.205-3.409 7.612-7.612 7.612z" fill="#9dc6fb"/></g><g><path d="m320.671 471.791c-4.204 0-7.612-3.407-7.612-7.612v-9.047c0-4.204 3.408-7.612 7.612-7.612s7.611 3.407 7.611 7.612v9.047c0 4.205-3.408 7.612-7.611 7.612z" fill="#9dc6fb"/></g><path d="m255.789 423.968c-4.204 0-7.611-3.407-7.611-7.612v-9.048c0-4.204 3.408-7.611 7.611-7.611s7.612 3.407 7.612 7.611v9.048c0 4.205-3.408 7.612-7.612 7.612z" fill="#9dc6fb"/><path d="m255.789 471.791c-4.204 0-7.611-3.407-7.611-7.612v-9.047c0-4.204 3.408-7.612 7.611-7.612s7.612 3.407 7.612 7.612v9.047c0 4.205-3.408 7.612-7.612 7.612z" fill="#9dc6fb"/><g><path d="m441.846 376.145c-4.204 0-7.611-3.407-7.611-7.612v-9.047c0-4.204 3.408-7.612 7.611-7.612s7.612 3.407 7.612 7.612v9.047c0 4.204-3.408 7.612-7.612 7.612z" fill="#9dc6fb"/></g><g><path d="m411.553 376.145c-4.204 0-7.611-3.407-7.611-7.612v-9.047c0-4.204 3.408-7.612 7.611-7.612s7.612 3.407 7.612 7.612v9.047c-.001 4.204-3.409 7.612-7.612 7.612z" fill="#9dc6fb"/></g><g><path d="m441.846 423.968c-4.204 0-7.611-3.407-7.611-7.612v-9.048c0-4.204 3.408-7.611 7.611-7.611s7.612 3.407 7.612 7.611v9.048c0 4.205-3.408 7.612-7.612 7.612z" fill="#9dc6fb"/></g><g><path d="m411.553 423.968c-4.204 0-7.611-3.407-7.611-7.612v-9.048c0-4.204 3.408-7.611 7.611-7.611s7.612 3.407 7.612 7.611v9.048c-.001 4.205-3.409 7.612-7.612 7.612z" fill="#9dc6fb"/></g><g><path d="m441.846 471.791c-4.204 0-7.611-3.407-7.611-7.612v-9.047c0-4.204 3.408-7.612 7.611-7.612s7.612 3.407 7.612 7.612v9.047c0 4.205-3.408 7.612-7.612 7.612z" fill="#9dc6fb"/></g><path d="m406.699 455.133h-27.471v49.256h32.324v-44.403c.001-2.669-2.183-4.853-4.853-4.853z" fill="#9dc6fb"/><path d="m381.258 455.133h-25.441c-2.669 0-4.853 2.184-4.853 4.853v44.403h30.294z" fill="#80b4fb"/><path d="m155.76 455.133h-27.47v49.256h32.324v-44.403c-.001-2.669-2.184-4.853-4.854-4.853z" fill="#9dc6fb"/><path d="m130.319 455.133h-25.441c-2.669 0-4.853 2.184-4.853 4.853v44.403h30.294z" fill="#80b4fb"/><g><path d="m488.804 512h-465.608c-4.204 0-7.611-3.407-7.611-7.612s3.408-7.611 7.611-7.611h465.609c4.204 0 7.611 3.407 7.611 7.611s-3.408 7.612-7.612 7.612z" fill="#ccf49f"/></g></g></svg>