<svg id="Capa_1" enable-background="new 0 0 512 512" height="60" viewBox="0 0 512 512" width="60" xmlns="http://www.w3.org/2000/svg"><g><g><path d="m428.816 123.18h-43.315c-4.204 0-7.612-3.407-7.612-7.611s3.408-7.611 7.612-7.611h43.315c4.204 0 7.611 3.407 7.611 7.611s-3.407 7.611-7.611 7.611z" fill="#ddeafb"/></g><g><path d="m428.816 216.095h-43.315c-4.204 0-7.612-3.407-7.612-7.611s3.408-7.611 7.612-7.611h43.315c4.204 0 7.611 3.407 7.611 7.611s-3.407 7.611-7.611 7.611z" fill="#ddeafb"/></g><g><path d="m428.816 309.01h-43.315c-4.204 0-7.612-3.407-7.612-7.612s3.408-7.611 7.612-7.611h43.315c4.204 0 7.611 3.407 7.611 7.611s-3.407 7.612-7.611 7.612z" fill="#ddeafb"/></g><path d="m34.031 84.429h357.05v419.96h-357.05z" fill="#fff5f5"/><path d="m34.031 84.429h45.234v419.96h-45.234z" fill="#eee1dd"/><path d="m115.92 130.892h-32.861c-2.348 0-4.252 1.904-4.252 4.252v40.814c0 2.48 4 5.022 4 7.612 0 2.498-4 5.04-4 7.611v34.976c0 2.572 3 5.113 3 7.611 0 2.589-3 5.131-3 7.611v40.814c0 2.348 1.904 4.252 4.252 4.252h32.862c2.348 0 4.252-1.904 4.252-4.252 0-2.346 0-19.244 0-40.814 0-2.48-3-5.023-3-7.611 0-2.498 3-5.04 3-7.611 0-11.461 0-23.517 0-34.976 0-2.572-3-5.113-3-7.611 0-2.589 3-5.131 3-7.612 0-21.71 0-38.677 0-40.814-.001-2.348-1.905-4.252-4.253-4.252z" fill="#80b4fb"/><path d="m99.489 282.194c0-6.928 0-140.789 0-147.05 0-2.348 1.904-4.252 4.252-4.252h-20.682c-2.348 0-4.252 1.904-4.252 4.252v147.05c0 2.348 1.904 4.252 4.252 4.252h20.683c-2.349 0-4.253-1.903-4.253-4.252z" fill="#61a2f9"/><path d="m34.031 54.659h357.05v33.768h-357.05z" fill="#eee1dd"/><path d="m34.031 54.659h45.234v33.768h-45.234z" fill="#ccbeb9"/><g><path d="m301.618 357.329c0 12.297-9.969 22.265-22.265 22.265-12.297 0-22.266-9.969-22.266-22.265 0 12.297-9.969 22.265-22.265 22.265-12.297 0-22.265-9.969-22.265-22.265 0 12.297-9.969 22.265-22.266 22.265-12.297 0-22.265-9.969-22.265-22.265 0 12.297-9.969 22.265-22.265 22.265-12.297 0-22.265-9.969-22.265-22.265 0 12.297-9.969 22.265-22.265 22.265v124.794h222.655v-124.794c-12.3 0-22.268-9.968-22.268-22.265z" fill="#eee1dd"/></g><path d="m138.917 378.518c-8.948-2.888-15.423-11.28-15.423-21.19 0 12.297-9.969 22.265-22.265 22.265v124.794h37.689v-125.869z" fill="#ccbeb9"/><path d="m485.237 91.624h-53.163c-4.135 0-7.487 3.352-7.487 7.487v218.744c0 4.135 3.352 7.487 7.487 7.487h53.163c4.135 0 7.487-3.352 7.487-7.487v-218.743c0-4.135-3.352-7.488-7.487-7.488z" fill="#eaaadd"/><path d="m457.105 317.856v-218.744c0-4.135 3.352-7.487 7.487-7.487h-32.519c-4.135 0-7.487 3.352-7.487 7.487v218.744c0 4.135 3.352 7.487 7.487 7.487h32.519c-4.135 0-7.487-3.352-7.487-7.487z" fill="#e490d0"/><path d="m154.464 427.373v77.015h59.271v-80.46h-55.756c-1.942 0-3.515 1.542-3.515 3.445z" fill="#80b4fb"/><path d="m186.689 423.928h-28.71c-1.941 0-3.515 1.542-3.515 3.445v77.015h28.71v-77.015c0-1.903 1.574-3.445 3.515-3.445z" fill="#61a2f9"/><g fill="#80b4fb"><path d="m123.24 360.374c0 12.417 10.102 22.519 22.519 22.519s22.519-10.102 22.519-22.519v-34.611h-45.038z"/><path d="m212.302 360.374c0 12.417 10.102 22.519 22.519 22.519s22.519-10.102 22.519-22.519v-34.611h-45.038z"/><path d="m337.235 325.763h-35.871v34.611c0 12.417 10.102 22.519 22.519 22.519s22.519-10.102 22.519-22.519v-25.442c.001-5.056-4.112-9.169-9.167-9.169z"/></g><path d="m78.709 334.932v25.442c0 12.417 10.102 22.519 22.519 22.519s22.519-10.102 22.519-22.519v-34.611h-35.87c-5.055 0-9.168 4.113-9.168 9.169z" fill="#eaaadd"/><path d="m167.771 360.374c0 12.417 10.102 22.519 22.519 22.519s22.519-10.102 22.519-22.519v-34.611h-45.038z" fill="#eaaadd"/><path d="m256.833 325.763v34.611c0 12.417 10.102 22.519 22.519 22.519s22.519-10.102 22.519-22.519v-34.611z" fill="#eaaadd"/><path d="m145.505 360.374v-34.611h-22.265v34.611c0 12.417 10.102 22.519 22.519 22.519 4.048 0 7.847-1.079 11.133-2.957-6.794-3.881-11.387-11.193-11.387-19.562z" fill="#61a2f9"/><path d="m234.568 360.374v-34.611h-22.266v34.611c0 12.417 10.102 22.519 22.519 22.519 4.048 0 7.846-1.079 11.133-2.957-6.794-3.881-11.386-11.193-11.386-19.562z" fill="#61a2f9"/><path d="m323.63 360.374v-34.611h-22.266v34.611c0 12.417 10.102 22.519 22.519 22.519 4.048 0 7.847-1.079 11.133-2.957-6.794-3.881-11.386-11.193-11.386-19.562z" fill="#61a2f9"/><path d="m100.975 360.374v-34.611h-13.098c-5.055 0-9.168 4.113-9.168 9.168v25.442c0 12.417 10.102 22.519 22.519 22.519 4.048 0 7.846-1.079 11.133-2.957-6.794-3.88-11.386-11.192-11.386-19.561z" fill="#e490d0"/><path d="m190.036 360.374v-34.611h-22.265v34.611c0 12.417 10.102 22.519 22.519 22.519 4.048 0 7.847-1.079 11.133-2.957-6.794-3.881-11.387-11.193-11.387-19.562z" fill="#e490d0"/><path d="m279.098 360.374v-34.611h-22.265v34.611c0 12.417 10.102 22.519 22.519 22.519 4.048 0 7.847-1.079 11.133-2.957-6.794-3.881-11.387-11.193-11.387-19.562z" fill="#e490d0"/><path d="m267.203 423.928h-54.647v80.46h58.092v-77.015c0-1.903-1.543-3.445-3.445-3.445z" fill="#9dc6fb"/><g><path d="m398.224 512h-371.337c-4.204 0-7.611-3.407-7.611-7.612s3.408-7.611 7.611-7.611h371.337c4.204 0 7.611 3.407 7.611 7.611s-3.407 7.612-7.611 7.612z" fill="#9d6b6b"/></g><path d="m403.779 50.447-25.433-47.422c-.999-1.863-2.941-3.025-5.054-3.025h-321.472c-2.113 0-4.055 1.162-5.054 3.025l-25.434 47.422c-2.049 3.821.719 8.446 5.055 8.446h372.339c4.334 0 7.102-4.625 5.053-8.446z" fill="#eaaadd"/><path d="m72.752 50.447 25.434-47.422c.998-1.863 2.941-3.025 5.054-3.025h-51.42c-2.113 0-4.056 1.162-5.054 3.025l-25.434 47.422c-2.049 3.821.719 8.446 5.055 8.446h51.42c-4.336 0-7.104-4.625-5.055-8.446z" fill="#e490d0"/><g fill="#9dc6fb"><path d="m120.172 226.158h-41.365v15.223h41.366c-.001-4.875-.001-9.985-.001-15.223z"/><path d="m78.807 191.181h41.366c0-5.238 0-10.349 0-15.223h-41.366z"/></g><g fill="#80b4fb"><path d="m99.489 226.158h-20.682v15.223h20.683c-.001-4.875-.001-9.985-.001-15.223z"/><path d="m78.807 191.181h20.683c0-5.238 0-10.349 0-15.223h-20.683z"/></g><path d="m191.298 130.892h-32.862c-2.348 0-4.252 1.904-4.252 4.252v40.814c0 2.48 4 5.022 4 7.612 0 2.599-4 5.246-4 7.924v34.664c0 2.572 3 5.113 3 7.611 0 2.589-3 5.131-3 7.611v40.814c0 2.348 1.904 4.252 4.252 4.252h32.862c2.348 0 4.252-1.904 4.252-4.252 0-2.346 0-19.244 0-40.814 0-2.48-3-4.023-3-6.611 0-2.498 3-6.04 3-8.611 0-11.461 0-23.517 0-34.976 0-2.572-4-5.113-4-7.611 0-2.589 4-5.131 4-7.612 0-21.71 0-38.677 0-40.814 0-2.349-1.904-4.253-4.252-4.253z" fill="#80b4fb"/><path d="m174.867 282.194c0-6.928 0-140.789 0-147.05 0-2.348 1.904-4.252 4.252-4.252h-20.683c-2.348 0-4.252 1.904-4.252 4.252v147.05c0 2.348 1.904 4.252 4.252 4.252h20.683c-2.348 0-4.252-1.903-4.252-4.252z" fill="#61a2f9"/><g fill="#9dc6fb"><path d="m195.55 226.158h-41.366v15.223h41.366c0-4.875 0-9.985 0-15.223z"/><path d="m154.184 191.181h41.366c0-5.238 0-10.349 0-15.223h-41.366z"/></g><g fill="#80b4fb"><path d="m174.867 226.158h-20.683v15.223h20.683c0-4.875 0-9.985 0-15.223z"/><path d="m154.184 191.181h20.683c0-5.238 0-10.349 0-15.223h-20.683z"/></g><path d="m266.675 130.892h-32.862c-2.348 0-4.252 1.904-4.252 4.252v147.05c0 2.348 1.904 4.252 4.252 4.252h32.862c2.348 0 4.252-1.904 4.252-4.252 0-2.346 0-19.244 0-40.814 0-2.48-4-5.023-4-7.611 0-2.498 4-5.04 4-7.611 0-11.461 0-23.517 0-34.976 0-2.572-4-5.113-4-7.611 0-2.589 4-5.131 4-7.612 0-21.71 0-38.677 0-40.814 0-2.349-1.903-4.253-4.252-4.253z" fill="#80b4fb"/><path d="m250.245 282.194c0-6.928 0-140.789 0-147.05 0-2.348 1.904-4.252 4.252-4.252h-20.683c-2.348 0-4.252 1.904-4.252 4.252v40.814c0 2.48 4 5.022 4 7.611 0 2.498-4 5.04-4 7.611v34.976c0 2.572 4 5.113 4 7.611 0 2.589-4 5.131-4 7.611v40.814c0 2.348 1.904 4.252 4.252 4.252h20.683c-2.349.002-4.252-1.901-4.252-4.25z" fill="#61a2f9"/><g fill="#9dc6fb"><path d="m270.927 226.158h-41.366v15.223h41.366c0-4.875 0-9.985 0-15.223z"/><path d="m229.562 191.181h41.366c0-5.238 0-10.349 0-15.223h-41.366z"/></g><g fill="#80b4fb"><path d="m250.245 226.158h-20.683v15.223h20.683c0-4.875 0-9.985 0-15.223z"/><path d="m229.562 191.181h20.683c0-5.238 0-10.349 0-15.223h-20.683z"/></g><path d="m342.053 130.892h-32.862c-2.348 0-4.252 1.904-4.252 4.252v40.814c0 2.48 3 5.022 3 7.612 0 2.498-3 5.04-3 7.611v34.976c0 2.572 3 5.113 3 7.611 0 2.589-3 5.131-3 7.611v40.814c0 2.348 1.904 4.252 4.252 4.252h32.862c2.348 0 4.252-1.904 4.252-4.252 0-2.346 0-19.244 0-40.814 0-2.48-3-5.023-3-7.611 0-2.498 3-5.04 3-7.611 0-11.461 0-23.517 0-34.976 0-2.572-3-5.113-3-7.611 0-2.589 3-5.131 3-7.612 0-21.71 0-38.677 0-40.814 0-2.348-1.904-4.252-4.252-4.252z" fill="#80b4fb"/><path d="m325.622 282.194c0-6.928 0-140.789 0-147.05 0-2.348 1.904-4.252 4.252-4.252h-20.683c-2.348 0-4.252 1.904-4.252 4.252v147.05c0 2.348 1.904 4.252 4.252 4.252h20.683c-2.348 0-4.252-1.903-4.252-4.252z" fill="#61a2f9"/><g fill="#9dc6fb"><path d="m346.305 226.158h-41.366v15.223h41.366c0-4.875 0-9.985 0-15.223z"/><path d="m304.939 191.181h41.366c0-5.238 0-10.349 0-15.223h-41.366z"/></g><g fill="#80b4fb"><path d="m325.622 226.158h-20.683v15.223h20.683c0-4.875 0-9.985 0-15.223z"/><path d="m304.939 191.181h20.683c0-5.238 0-10.349 0-15.223h-20.683z"/></g></g></svg>