<svg id="Capa_1" enable-background="new 0 0 512 512" height="60" viewBox="0 0 512 512" width="60" xmlns="http://www.w3.org/2000/svg"><g><path d="m486.6 468.151v-281.089h-140.717v9.083c0 5.127-4.195 9.322-9.322 9.322h-160.107c-5.127 0-9.322-4.195-9.322-9.322v-9.083h-141.732v281.089z" fill="#ddeafb"/><g><path d="m25.4 187.062h36.32v281.089h-36.32z" fill="#bed8fb"/></g><path d="m256 33.781c-73.278 0-137.328 39.803-172.108 99.139h344.215c-34.779-59.336-98.829-99.139-172.107-99.139z" fill="#bed8fb"/><path d="m246.967 33.99c-69.487 3.121-129.732 42.046-163.074 98.93h50.419c25.84-44.086 65.355-79.043 112.655-98.93z" fill="#9dc6fb"/><path d="m256 35.096c71.982 0 134.852 39.319 168.687 97.824h39.698c-37.015-78.585-116.406-132.92-208.385-132.92s-171.37 54.335-208.386 132.92h39.698c33.836-58.505 96.706-97.824 168.688-97.824z" fill="#ddeafb"/><path d="m337.719 15.751c.625 0 1.246.011 1.87.016-25.917-10.175-54.104-15.767-83.589-15.767-91.979 0-171.37 54.335-208.386 132.92h39.699c31.851-55.073 89.432-93.132 156.12-97.41 28.879-12.706 60.764-19.759 94.286-19.759z" fill="#bed8fb"/><path d="m451.326 336.715h-80.9v79.979c0 3.4 2.756 6.155 6.155 6.155h68.59c3.4 0 6.155-2.756 6.155-6.155z" fill="#80b4fb"/><path d="m391.522 416.694v-79.979h-21.097v79.979c0 3.4 2.756 6.155 6.156 6.155h21.096c-3.399 0-6.155-2.756-6.155-6.155z" fill="#61a2f9"/><path d="m403.264 335.841h15.224v87.008h-15.224z" fill="#9dc6fb"/><path d="m410.876 296.264c-22.34 0-40.45 18.11-40.45 40.45h80.901c-.001-22.339-18.111-40.45-40.451-40.45z" fill="#9dc6fb"/><path d="m421.424 297.663c-3.364-.907-6.898-1.398-10.548-1.398-22.34 0-40.45 18.11-40.45 40.45h21.097c-.001-18.69 12.678-34.411 29.901-39.052z" fill="#80b4fb"/><path d="m141.574 336.715h-80.9v79.979c0 3.4 2.756 6.155 6.155 6.155h68.59c3.4 0 6.155-2.756 6.155-6.155z" fill="#80b4fb"/><path d="m81.77 416.694v-79.979h-21.096v79.979c0 3.4 2.756 6.155 6.156 6.155h21.096c-3.4 0-6.156-2.756-6.156-6.155z" fill="#61a2f9"/><path d="m93.512 335.841h15.224v87.008h-15.224z" fill="#9dc6fb"/><path d="m101.124 296.264c-22.34 0-40.45 18.11-40.45 40.45h80.901c-.001-22.339-18.111-40.45-40.451-40.45z" fill="#9dc6fb"/><path d="m111.672 297.663c-3.364-.907-6.898-1.398-10.548-1.398-22.34 0-40.45 18.11-40.45 40.45h21.096c0-18.69 12.679-34.411 29.902-39.052z" fill="#80b4fb"/><path d="m25.4 466.121h159.145v38.267h-159.145z" fill="#ecb780"/><path d="m25.4 466.121h36.321v38.267h-36.321z" fill="#e49542"/><path d="m330.358 466.121h156.242v38.267h-156.242z" fill="#ecb780"/><path d="m167.131 163.467v-31.716h-155.416c-4.388 0-7.945 3.557-7.945 7.945v23.771z" fill="#9dc6fb"/><path d="m59.098 131.751h-47.383c-4.388 0-7.945 3.557-7.945 7.945v23.771h47.382v-23.771c.001-4.387 3.558-7.945 7.946-7.945z" fill="#80b4fb"/><path d="m3.77 161.437v21.74c0 4.388 3.557 7.945 7.945 7.945h155.416v-29.685z" fill="#e27a66"/><path d="m51.153 183.177v-21.74h-47.383v21.74c0 4.388 3.557 7.945 7.945 7.945h47.382c-4.387 0-7.944-3.557-7.944-7.945z" fill="#dd544f"/><path d="m508.229 163.467v-23.771c0-4.388-3.557-7.945-7.945-7.945h-154.401v31.716z" fill="#9dc6fb"/><path d="m345.883 161.437v29.685h154.401c4.388 0 7.945-3.557 7.945-7.945v-21.74z" fill="#e27a66"/><path d="m176.847 335.841h158.305v168.547h-158.305z" fill="#80b4fb"/><path d="m176.847 335.841h33.021v168.547h-33.021z" fill="#61a2f9"/><g><path d="m256 509.744c-4.204 0-7.612-3.408-7.612-7.612v-169.016c0-4.204 3.408-7.612 7.612-7.612s7.612 3.408 7.612 7.612v169.015c0 4.205-3.408 7.613-7.612 7.613z" fill="#9dc6fb"/></g><path d="m256 256.688c-43.715 0-79.153 35.438-79.153 79.153h158.305c.001-43.715-35.437-79.153-79.152-79.153z" fill="#9dc6fb"/><path d="m272.511 258.425c-5.327-1.131-10.847-1.737-16.511-1.737-43.715 0-79.152 35.438-79.152 79.153h33.021c0-38.051 26.854-69.82 62.642-77.416z" fill="#80b4fb"/><g><path d="m497.613 512h-483.227c-4.204 0-7.612-3.408-7.612-7.612s3.408-7.612 7.612-7.612h483.227c4.204 0 7.612 3.408 7.612 7.612s-3.408 7.612-7.612 7.612z" fill="#f4d8bc"/></g><g><path d="m227.292 425.685c-4.204 0-7.612-3.408-7.612-7.612v-10.812c0-4.204 3.408-7.612 7.612-7.612s7.612 3.408 7.612 7.612v10.812c0 4.204-3.408 7.612-7.612 7.612z" fill="#ddeafb"/></g><g><path d="m284.708 425.685c-4.204 0-7.612-3.408-7.612-7.612v-10.812c0-4.204 3.408-7.612 7.612-7.612s7.612 3.408 7.612 7.612v10.812c0 4.204-3.408 7.612-7.612 7.612z" fill="#ddeafb"/></g><path d="m339.606 113.347h-167.212c-5.127 0-9.322 4.195-9.322 9.322v77.536c0 5.127 4.195 9.322 9.322 9.322h167.212c5.127 0 9.322-4.195 9.322-9.322v-77.536c0-5.127-4.195-9.322-9.322-9.322z" fill="#e48e81"/><path d="m205.192 200.205v-77.536c0-5.127 4.195-9.322 9.322-9.322h-42.12c-5.127 0-9.322 4.195-9.322 9.322v77.536c0 5.127 4.195 9.322 9.322 9.322h42.12c-5.127 0-9.322-4.195-9.322-9.322z" fill="#e27a66"/><g><path d="m305.906 169.049h-99.812c-4.204 0-7.612-3.408-7.612-7.612s3.408-7.612 7.612-7.612h99.812c4.204 0 7.612 3.408 7.612 7.612s-3.408 7.612-7.612 7.612z" fill="#e27a66"/></g></g></svg>