<svg id="Capa_1" enable-background="new 0 0 512 512" height="60" viewBox="0 0 512 512" width="60" xmlns="http://www.w3.org/2000/svg"><g><g><path d="m78.036 337.32c-4.142 0-7.5-3.357-7.5-7.5v-93.51c0-4.143 3.358-7.5 7.5-7.5s7.5 3.357 7.5 7.5v93.511c0 4.142-3.358 7.499-7.5 7.499z" fill="#bed8fb"/></g><g><path d="m109.167 337.32c-4.142 0-7.5-3.357-7.5-7.5v-108.907c0-4.143 3.358-7.5 7.5-7.5s7.5 3.357 7.5 7.5v108.907c0 4.143-3.357 7.5-7.5 7.5z" fill="#bed8fb"/></g><g><path d="m140.298 337.32c-4.142 0-7.5-3.357-7.5-7.5v-142.735c0-4.143 3.358-7.5 7.5-7.5s7.5 3.357 7.5 7.5v142.735c0 4.143-3.358 7.5-7.5 7.5z" fill="#bed8fb"/></g><g><path d="m224.522 337.32c-4.142 0-7.5-3.357-7.5-7.5v-168.402c0-4.143 3.358-7.5 7.5-7.5s7.5 3.357 7.5 7.5v168.402c0 4.143-3.358 7.5-7.5 7.5z" fill="#bed8fb"/></g><g><path d="m256 337.32c-4.142 0-7.5-3.357-7.5-7.5v-162.705c0-4.143 3.358-7.5 7.5-7.5s7.5 3.357 7.5 7.5v162.705c0 4.143-3.358 7.5-7.5 7.5z" fill="#bed8fb"/></g><g><path d="m287.479 337.32c-4.142 0-7.5-3.357-7.5-7.5v-168.402c0-4.143 3.358-7.5 7.5-7.5s7.5 3.357 7.5 7.5v168.402c0 4.143-3.358 7.5-7.5 7.5z" fill="#bed8fb"/></g><g><path d="m371.703 337.32c-4.142 0-7.5-3.357-7.5-7.5v-142.652c0-4.143 3.358-7.5 7.5-7.5s7.5 3.357 7.5 7.5v142.652c0 4.143-3.358 7.5-7.5 7.5z" fill="#bed8fb"/></g><g><path d="m402.833 337.32c-4.142 0-7.5-3.357-7.5-7.5v-109.6c0-4.143 3.358-7.5 7.5-7.5s7.5 3.357 7.5 7.5v109.6c0 4.143-3.357 7.5-7.5 7.5z" fill="#bed8fb"/></g><g><path d="m433.964 337.32c-4.142 0-7.5-3.357-7.5-7.5v-96.254c0-4.143 3.358-7.5 7.5-7.5s7.5 3.357 7.5 7.5v96.254c0 4.143-3.358 7.5-7.5 7.5z" fill="#bed8fb"/></g><g><path d="m48.551 234.114c-3.611-2.029-4.894-6.601-2.866-10.212 2.029-3.612 6.6-4.896 10.212-2.866 8.527 4.791 19.189 5.476 30.019 1.934 18.045-5.903 45.421-25.845 73.365-87.321 1.714-3.771 6.16-5.437 9.931-3.725 3.771 1.715 5.438 6.161 3.724 9.932-30.199 66.436-61.454 88.532-82.356 95.37-15.391 5.036-30.232 3.514-42.029-3.112z" fill="#ddeafb"/></g><g><path d="m421.42 237.226c-20.902-6.837-52.158-28.934-82.357-95.37-1.714-3.771-.047-8.217 3.724-9.932 3.769-1.713 8.217-.047 9.931 3.725 27.945 61.478 55.321 81.418 73.366 87.321 10.832 3.543 21.492 2.856 30.019-1.935 3.611-2.029 8.183-.745 10.212 2.865 2.029 3.611.746 8.184-2.865 10.213-11.76 6.606-26.591 8.163-42.03 3.113z" fill="#ddeafb"/></g><g><path d="m193.247 143.491c-2.618-3.21-2.137-7.935 1.073-10.552s7.935-2.138 10.552 1.073c26.427 32.408 75.885 32.342 102.257 0 2.618-3.211 7.342-3.691 10.552-1.073 3.21 2.617 3.69 7.342 1.073 10.552-32.432 39.776-93.14 39.698-125.507 0z" fill="#ddeafb"/></g><g><g><path d="m35.75 219.224c-4.142 0-7.5-3.357-7.5-7.5v-36.472c0-4.143 3.358-7.5 7.5-7.5s7.5 3.357 7.5 7.5v36.472c0 4.142-3.358 7.5-7.5 7.5z" fill="#ddeafb"/></g></g><g><g><path d="m476.25 219.224c-4.142 0-7.5-3.357-7.5-7.5v-36.472c0-4.143 3.358-7.5 7.5-7.5s7.5 3.357 7.5 7.5v36.472c0 4.142-3.358 7.5-7.5 7.5z" fill="#ddeafb"/></g></g><g><g><path d="m329.417 124.224c-4.142 0-7.5-3.357-7.5-7.5v-36.472c0-4.143 3.358-7.5 7.5-7.5s7.5 3.357 7.5 7.5v36.472c0 4.142-3.358 7.5-7.5 7.5z" fill="#ddeafb"/></g></g><g><g><path d="m182.583 124.224c-4.142 0-7.5-3.357-7.5-7.5v-36.472c0-4.143 3.358-7.5 7.5-7.5s7.5 3.357 7.5 7.5v36.472c0 4.142-3.357 7.5-7.5 7.5z" fill="#ddeafb"/></g></g><path d="m49.18 354.668v56.265l56.198-56.265z" fill="#e48e81"/><path d="m461.305 355.918v55.015l-54.683-55.015z" fill="#e48e81"/><path d="m19.275 354.668h32.951v58.5h-32.951z" fill="#e27a66"/><path d="m312.941 354.668h32.951v58.5h-32.951z" fill="#e27a66"/><path d="m166.108 354.668h32.951v58.5h-32.951z" fill="#e27a66"/><path d="m459.775 354.668h32.951v58.5h-32.951z" fill="#e27a66"/><g><path d="m45.197 204.724h-18.894c-3.882 0-7.028 3.147-7.028 7.028v117.714h32.951v-117.714c0-3.881-3.147-7.028-7.029-7.028z" fill="#e27a66"/></g><g><path d="m338.864 112.361h-18.894c-3.882 0-7.028 3.147-7.028 7.028v210.076h32.951v-210.075c-.001-3.882-3.147-7.029-7.029-7.029z" fill="#e27a66"/></g><g><path d="m192.031 112.361h-18.894c-3.882 0-7.028 3.147-7.028 7.028v210.076h32.951v-210.075c-.001-3.882-3.148-7.029-7.029-7.029z" fill="#e27a66"/></g><g><path d="m485.697 204.724h-18.894c-3.882 0-7.028 3.147-7.028 7.028v117.714h32.951v-117.714c-.001-3.881-3.147-7.028-7.029-7.028z" fill="#e27a66"/></g><g fill="#dd544f"><path d="m19.275 354.668h16.475v58.5h-16.475z"/><path d="m312.941 354.668h16.476v58.5h-16.476z"/><path d="m166.108 354.668h16.475v58.5h-16.475z"/><path d="m459.775 354.668h16.475v58.5h-16.475z"/><path d="m42.779 204.724h-16.476c-3.882 0-7.028 3.147-7.028 7.028v117.714h16.475v-117.714c0-3.881 3.147-7.028 7.029-7.028z"/><path d="m336.445 112.361h-16.475c-3.882 0-7.028 3.147-7.028 7.028v210.076h16.476v-210.075c-.001-3.882 3.145-7.029 7.027-7.029z"/><path d="m189.612 112.361h-16.475c-3.882 0-7.028 3.147-7.028 7.028v210.076h16.475v-210.075c-.001-3.882 3.146-7.029 7.028-7.029z"/><path d="m483.279 204.724h-16.475c-3.882 0-7.028 3.147-7.028 7.028v117.714h16.475v-117.714c-.001-3.881 3.146-7.028 7.028-7.028z"/></g><g><path d="m504.5 306.423h-497c-4.142 0-7.5-3.357-7.5-7.5s3.358-7.5 7.5-7.5h497c4.142 0 7.5 3.357 7.5 7.5s-3.358 7.5-7.5 7.5z" fill="#e48e81"/></g><path d="m501.157 328.466c-6.56 0-476.814 0-490.313 0-1.847 0-3.344 1.497-3.344 3.344v21.628c0 1.846 1.497 3.344 3.344 3.344h490.313c1.847 0 3.344-1.497 3.344-3.344v-21.628c-.001-1.847-1.498-3.344-3.344-3.344z" fill="#938493"/><path d="m33 353.437v-21.628c0-1.846 1.497-3.344 3.344-3.344-14.638 0-23.781 0-25.5 0-1.847 0-3.344 1.497-3.344 3.344v21.628c0 1.846 1.497 3.344 3.344 3.344h25.5c-1.847 0-3.344-1.497-3.344-3.344z" fill="#7b6c79"/><path d="m60.657 410.933h-49.813c-1.847 0-3.344 1.497-3.344 3.344v21.628c0 1.846 1.497 3.344 3.344 3.344h49.813c1.847 0 3.344-1.497 3.344-3.344v-21.628c-.001-1.847-1.498-3.344-3.344-3.344z" fill="#e48e81"/><path d="m354.323 410.933h-49.813c-1.847 0-3.344 1.497-3.344 3.344v21.628c0 1.846 1.497 3.344 3.344 3.344h49.813c1.847 0 3.344-1.497 3.344-3.344v-21.628c0-1.847-1.497-3.344-3.344-3.344z" fill="#e48e81"/><path d="m207.49 410.933h-49.813c-1.847 0-3.344 1.497-3.344 3.344v21.628c0 1.846 1.497 3.344 3.344 3.344h49.813c1.847 0 3.344-1.497 3.344-3.344v-21.628c0-1.847-1.497-3.344-3.344-3.344z" fill="#e48e81"/><path d="m501.157 410.933h-49.813c-1.847 0-3.344 1.497-3.344 3.344v21.628c0 1.846 1.497 3.344 3.344 3.344h49.813c1.847 0 3.344-1.497 3.344-3.344v-21.628c-.001-1.847-1.498-3.344-3.344-3.344z" fill="#e48e81"/><path d="m31.479 435.904v-21.628c0-1.846 1.497-3.344 3.344-3.344h-23.979c-1.847 0-3.344 1.497-3.344 3.344v21.628c0 1.846 1.497 3.344 3.344 3.344h23.978c-1.846 0-3.343-1.497-3.343-3.344z" fill="#e27a66"/><path d="m325.145 435.904v-21.628c0-1.846 1.497-3.344 3.344-3.344h-23.979c-1.846 0-3.343 1.497-3.343 3.344v21.628c0 1.846 1.497 3.344 3.343 3.344h23.979c-1.847 0-3.344-1.497-3.344-3.344z" fill="#e27a66"/><path d="m178.312 435.904v-21.628c0-1.846 1.497-3.344 3.343-3.344h-23.978c-1.846 0-3.344 1.497-3.344 3.344v21.628c0 1.846 1.497 3.344 3.344 3.344h23.978c-1.846 0-3.343-1.497-3.343-3.344z" fill="#e27a66"/><path d="m471.979 435.904v-21.628c0-1.846 1.497-3.344 3.344-3.344h-23.978c-1.847 0-3.344 1.497-3.344 3.344v21.628c0 1.846 1.497 3.344 3.344 3.344h23.978c-1.847 0-3.344-1.497-3.344-3.344z" fill="#e27a66"/></g></svg>