<svg id="Capa_1" enable-background="new 0 0 511.999 511.999" height="60" viewBox="0 0 511.999 511.999" width="60" xmlns="http://www.w3.org/2000/svg"><g><path d="m481.604.647-320.074 133.566c-3.08 1.286-5.086 4.296-5.086 7.633v164.183h121.903c5.814 0 10.528 4.713 10.528 10.528v187.83h204.185v-496.107c0-5.904-6.008-9.907-11.456-7.633z" fill="#ddeafb"/><g><path d="m201.775 119.447c0-.731.106-1.441.259-2.136l-40.504 16.902c-3.08 1.286-5.086 4.296-5.086 7.633v164.183h45.331z" fill="#bed8fb"/></g><path d="m283.422 300.955h-253.955c-5.814 0-10.528 4.713-10.528 10.528v192.904h275.011v-192.904c0-5.815-4.714-10.528-10.528-10.528z" fill="#c2a1d5"/><path d="m74.797 300.955h-45.331c-5.814 0-10.528 4.713-10.528 10.528v192.904h45.331v-192.904c0-5.815 4.714-10.528 10.528-10.528z" fill="#b48aca"/><path d="m127.012 351.674h-108.073v106.063h108.073c5.401 0 9.779-4.378 9.779-9.779 0-10.539 0-75.966 0-86.506 0-5.4-4.379-9.778-9.779-9.778z" fill="#9dc6fb"/><path d="m360.093 139.701c-6.71 0-12.149 5.439-12.149 12.149v293.738c0 6.71 5.44 12.149 12.149 12.149h132.967c0-10.778 0-306.315 0-318.036z" fill="#9dc6fb"/><path d="m18.939 351.674v106.063h45.331c0-15.384 0-90.679 0-106.063z" fill="#80b4fb"/><path d="m393.274 445.588c0-15.374 0-278.082 0-293.738 0-6.71 5.44-12.149 12.149-12.149h-45.331c-6.71 0-12.149 5.439-12.149 12.149v293.738c0 6.71 5.44 12.149 12.149 12.149h45.331c-6.709 0-12.149-5.439-12.149-12.149z" fill="#80b4fb"/><path d="m173.032 378.072h76.259v126.315h-76.259z" fill="#938493"/><path d="m173.032 378.072h38.925v126.315h-38.925z" fill="#7b6c79"/><path d="m242.699 351.674h-63.075c-3.641 0-6.592 2.951-6.592 6.592v26.498h76.259v-26.498c0-3.641-2.951-6.592-6.592-6.592z" fill="#a298a5"/><path d="m218.549 351.674h-38.925c-3.641 0-6.592 2.951-6.592 6.592v26.498h38.925v-26.498c0-3.641 2.951-6.592 6.592-6.592z" fill="#938493"/><path d="m127.012 344.062h-108.073c-4.204 0-7.611 3.407-7.611 7.611v106.063c0 4.204 3.408 7.611 7.611 7.611h108.073c9.589 0 17.39-7.801 17.39-17.389 0-10.539 0-75.967 0-86.506 0-9.588-7.801-17.39-17.39-17.39zm-100.462 15.223h100.462c1.195 0 2.167.972 2.167 2.167v35.642h-102.629zm102.629 88.674c0 1.194-.972 2.167-2.167 2.167h-100.462v-37.808h102.629z" fill="#bed8fb"/><path d="m493.06 132.09h-132.967c-10.896 0-19.761 8.864-19.761 19.76v293.738c0 10.896 8.865 19.76 19.761 19.76h132.967c4.204 0 7.611-3.407 7.611-7.611 0-12.759 0-304.867 0-318.035.001-4.204-3.407-7.612-7.611-7.612zm-7.611 106.063h-129.894v-37.81h129.894zm0 53.032h-129.894v-37.809h129.894zm0 53.032h-129.894v-37.809h129.894zm-129.894 15.223h129.894v37.809h-129.894zm0-207.59c0-2.502 2.036-4.537 4.538-4.537h125.356v37.808h-129.894zm129.894 298.275h-125.356c-2.502 0-4.538-2.036-4.538-4.537v-33.117h129.894z" fill="#bed8fb"/><g><path d="m499.91 511.999h-487.821c-4.204 0-7.611-3.407-7.611-7.611s3.408-7.611 7.611-7.611h487.821c4.204 0 7.611 3.407 7.611 7.611.001 4.204-3.407 7.611-7.611 7.611z" fill="#ccf49f"/></g><g><path d="m227.46 446.758h-7.892c-4.204 0-7.611-3.407-7.611-7.611s3.408-7.611 7.611-7.611h7.892c4.204 0 7.611 3.407 7.611 7.611s-3.407 7.611-7.611 7.611z" fill="#ddeafb"/></g></g></svg>