<svg id="Capa_1" enable-background="new 0 0 512 512" height="60" viewBox="0 0 512 512" width="60" xmlns="http://www.w3.org/2000/svg"><g><g><path d="m360.078 143.627c-4.204 0-7.612-3.408-7.612-7.611v-50.006c0-4.204 3.408-7.611 7.612-7.611s7.611 3.408 7.611 7.611v50.006c.001 4.203-3.407 7.611-7.611 7.611z" fill="#fff5f5"/></g><path d="m394.304 132.672h-68.452c-3.533 0-6.397 2.864-6.397 6.397v44.287h81.246v-44.287c0-3.534-2.864-6.397-6.397-6.397z" fill="#eee1dd"/><path d="m376.913 132.671h-51.06c-3.533 0-6.397 2.864-6.397 6.397v44.287h51.06v-44.287c0-3.533 2.864-6.397 6.397-6.397z" fill="#ccbeb9"/><path d="m463.541 180.311h-219.238v324.077h228.506v-314.809c0-5.119-4.149-9.268-9.268-9.268z" fill="#fff5f5"/><path d="m304.632 180.311h-60.329v324.077h51.06v-314.809c0-5.119 4.15-9.268 9.269-9.268z" fill="#eee1dd"/><path d="m234.167 1.47-187.328 127.067c-3.812 2.586-6.095 6.892-6.095 11.498v364.353h206.603v-495.932c.001-6.773-7.575-10.788-13.18-6.986z" fill="#8b818e"/><path d="m92.708 97.424-45.869 31.114c-3.812 2.586-6.095 6.892-6.095 11.498v364.353h51.06v-402.049c.001-1.704.317-3.366.904-4.916z" fill="#7b6c79"/><path d="m122.304 359.471h42.963v33.27h-42.963z" fill="#9dc6fb"/><path d="m122.304 291.106h42.963v33.27h-42.963z" fill="#9dc6fb"/><path d="m122.304 427.837h42.963v33.27h-42.963z" fill="#9dc6fb"/><path d="m122.304 222.741h42.963v33.27h-42.963z" fill="#9dc6fb"/><path d="m122.304 154.375h42.963v33.27h-42.963z" fill="#9dc6fb"/><g fill="#80b4fb"><path d="m197.844 359.471h-34.64v33.27h34.64c2.32 0 4.2-1.881 4.2-4.2v-24.87c0-2.319-1.88-4.2-4.2-4.2z"/><path d="m86.397 363.671v24.87c0 2.319 1.88 4.2 4.2 4.2h34.64v-33.27h-34.641c-2.319 0-4.199 1.88-4.199 4.2z"/><path d="m197.844 291.106h-34.64v33.27h34.641c2.319 0 4.2-1.88 4.2-4.2v-24.87c-.001-2.319-1.881-4.2-4.201-4.2z"/><path d="m86.397 295.306v24.87c0 2.319 1.88 4.2 4.2 4.2h34.64v-33.27h-34.64c-2.32 0-4.2 1.881-4.2 4.2z"/><path d="m197.844 427.837h-34.64v33.27h34.641c2.319 0 4.2-1.881 4.2-4.2v-24.87c-.001-2.32-1.881-4.2-4.201-4.2z"/><path d="m86.397 432.036v24.87c0 2.319 1.88 4.2 4.2 4.2h34.64v-33.27h-34.641c-2.319.001-4.199 1.881-4.199 4.2z"/><path d="m197.844 222.741h-34.64v33.27h34.641c2.319 0 4.2-1.881 4.2-4.199v-24.87c-.001-2.321-1.881-4.201-4.201-4.201z"/><path d="m86.397 226.94v24.87c0 2.319 1.88 4.2 4.2 4.2h34.64v-33.27h-34.641c-2.319.001-4.199 1.881-4.199 4.2z"/><path d="m197.844 154.375h-34.64v33.27h34.641c2.319 0 4.2-1.881 4.2-4.199v-24.87c-.001-2.32-1.881-4.201-4.201-4.201z"/><path d="m86.397 158.575v24.87c0 2.319 1.88 4.2 4.2 4.2h34.64v-33.27h-34.641c-2.319 0-4.199 1.88-4.199 4.2z"/></g><g><path d="m479.309 512h-446.617c-4.204 0-7.611-3.408-7.611-7.612s3.408-7.611 7.611-7.611h446.617c4.204 0 7.611 3.408 7.611 7.611 0 4.204-3.408 7.612-7.611 7.612z" fill="#ccf49f"/></g><path d="m424.285 222.741c-13.421 0-114.565 0-128.066 0-2.77 0-5.015 2.245-5.015 5.014v228.336c0 2.769 2.245 5.014 5.015 5.014h128.066c2.77 0 5.015-2.245 5.015-5.015 0-9.118 0-216.352 0-228.335.001-2.769-2.245-5.014-5.015-5.014z" fill="#9dc6fb"/><path d="m319.455 456.092c0-11.796 0-219.178 0-228.336 0-2.769 2.245-5.014 5.015-5.014-13.743 0-24.457 0-28.251 0-2.77 0-5.015 2.245-5.015 5.014v228.336c0 2.769 2.245 5.014 5.015 5.014h28.251c-2.77 0-5.015-2.245-5.015-5.014z" fill="#80b4fb"/><path d="m424.286 215.129c-13.422 0-114.565 0-128.067 0-6.962 0-12.626 5.664-12.626 12.626v228.336c0 6.962 5.664 12.626 12.626 12.626h128.067c6.962 0 12.626-5.664 12.626-12.626 0-21.502 0-205.411 0-228.336 0-6.962-5.664-12.626-12.626-12.626zm-2.597 79.455h-31.157v-24.504h31.157zm0 39.728h-31.157v-24.505h31.157zm0 39.728h-31.157v-24.504h31.157zm-122.873-24.505h31.157v24.504h-31.157zm0-39.728h31.157v24.505h-31.157zm76.493 24.505h-30.114v-24.505h30.114zm-30.114 15.223h30.114v24.504h-30.114zm30.114-54.951h-30.114v-24.504h30.114zm-45.336 0h-31.157v-24.504h31.157zm-31.157 94.679h31.157v24.504h-31.157zm46.379 0h30.114v24.504h-30.114zm45.337 0h31.157v24.504h-31.157zm31.157-134.406h-31.157v-24.504h31.157zm-46.38 0h-30.114v-24.504h30.114zm-76.493-24.505h31.157v24.504h-31.157zm0 198.638h31.157v24.504h-31.157zm46.379 0h30.114v24.504h-30.114zm76.494 24.505h-31.157v-24.505h31.157z" fill="#bed8fb"/></g></svg>