<svg id="Capa_1" enable-background="new 0 0 512 512" height="60" viewBox="0 0 512 512" width="60" xmlns="http://www.w3.org/2000/svg"><g><g><path d="m256 75.918c-4.142 0-7.5-3.357-7.5-7.5v-60.918c0-4.143 3.358-7.5 7.5-7.5s7.5 3.357 7.5 7.5v60.918c0 4.143-3.358 7.5-7.5 7.5z" fill="#938493"/></g><path d="m278.668 64.904c-3.85-2.682-8.429-4.12-13.121-4.12-6.471 0-12.066 0-19.092 0-4.692 0-9.271 1.438-13.121 4.12l-64.99 45.274h175.316z" fill="#ddeafb"/><path d="m273.741 62.308c-2.603-.995-5.377-1.524-8.195-1.524-6.471 0-12.066 0-19.092 0-4.692 0-9.271 1.438-13.122 4.12l-64.99 45.274h35.482l64.99-45.274c1.538-1.071 3.196-1.934 4.927-2.596z" fill="#bed8fb"/><path d="m301.899 254.668h-24.661c11.144 163.341 48.664 249.832 48.664 249.832h62.545c-54.316-78.005-77.04-178.081-86.548-249.832z" fill="#ddeafb"/><path d="m301.899 254.668h-24.661c11.144 163.341 48.664 249.832 48.664 249.832h62.545c-54.316-78.005-77.04-178.081-86.548-249.832z" fill="#ddeafb"/><path d="m237.857 254.668h36.287v249.832h-36.287z" fill="#bed8fb"/><path d="m210.101 254.668c-9.508 71.751-32.232 171.827-86.548 249.832h62.545s37.52-86.491 48.664-249.832z" fill="#ddeafb"/><path d="m277.239 254.668c11.143 163.341 48.663 249.832 48.663 249.832h31.893s-51.868-86.427-69.233-249.832z" fill="#bed8fb"/><path d="m237.857 254.668h18.143v249.832h-18.143z" fill="#9dc6fb"/><path d="m226.152 254.668h-16.051c-9.507 71.751-32.232 171.827-86.548 249.832h26.24c45.082-79.215 66.345-175.39 76.359-249.832z" fill="#bed8fb"/><path d="m168.342 110.177 14.82 48.218c3.629 11.806 14.478 19.856 26.76 19.856h92.156c12.282 0 23.131-8.05 26.76-19.856l14.82-48.218z" fill="#9dc6fb"/><path d="m220.518 110.177 5.999 48.218c1.469 11.806 5.86 19.856 10.832 19.856h37.303c4.971 0 9.363-8.05 10.832-19.856l5.999-48.218z" fill="#80b4fb"/><path d="m217.125 201.918h77.75v30.5h-77.75z" fill="#9dc6fb"/><path d="m217.125 201.918h35.482v30.5h-35.482z" fill="#80b4fb"/><path d="m314.313 248.759v-10.624c0-4.296-3.515-7.811-7.811-7.811h-101.004c-4.296 0-7.811 3.515-7.811 7.811v10.624c0 4.296 3.515 7.811 7.811 7.811h101.004c4.296 0 7.811-3.515 7.811-7.811z" fill="#bed8fb"/><path d="m233.169 248.759v-10.624c0-4.296 3.515-7.811 7.811-7.811h-35.482c-4.296 0-7.811 3.515-7.811 7.811v10.624c0 4.296 3.515 7.811 7.811 7.811h35.482c-4.296 0-7.811-3.515-7.811-7.811z" fill="#9dc6fb"/><path d="m314.313 196.269v-10.624c0-4.296-3.515-7.811-7.811-7.811h-67.063l-15.42 2.5-18.52-2.5c-4.296 0-7.811 3.515-7.811 7.811v10.624c0 4.296 3.515 7.811 7.811 7.811h101.004c4.295 0 7.81-3.515 7.81-7.811z" fill="#bed8fb"/><path d="m233.169 196.269v-10.624c0-4.296 3.515-7.811 7.811-7.811h-35.482c-4.296 0-7.811 3.515-7.811 7.811v10.624c0 4.296 3.515 7.811 7.811 7.811h35.482c-4.296 0-7.811-3.515-7.811-7.811z" fill="#9dc6fb"/><g><path d="m404.688 512h-297.376c-4.142 0-7.5-3.357-7.5-7.5s3.358-7.5 7.5-7.5h297.375c4.142 0 7.5 3.357 7.5 7.5s-3.357 7.5-7.499 7.5z" fill="#ccf49f"/></g><g><path d="m348.866 117.678h-185.732c-4.142 0-7.5-3.357-7.5-7.5s3.358-7.5 7.5-7.5h185.733c4.142 0 7.5 3.357 7.5 7.5s-3.358 7.5-7.501 7.5z" fill="#bed8fb"/></g></g></svg>