<svg id="Capa_1" enable-background="new 0 0 512 512" height="60" viewBox="0 0 512 512" width="60" xmlns="http://www.w3.org/2000/svg"><g><g><path d="m256 83.76c-4.142 0-7.5-3.357-7.5-7.5v-68.76c0-4.143 3.358-7.5 7.5-7.5s7.5 3.357 7.5 7.5v68.76c0 4.142-3.358 7.5-7.5 7.5z" fill="#938493"/></g><path d="m40.799 394.478h430.402v110.022h-430.402z" fill="#c3a2a2"/><path d="m40.799 394.478h40.653v110.022h-40.653z" fill="#aa8080"/><path d="m105.788 226.996h300.425v167.482h-300.425z" fill="#fff5f5"/><path d="m105.788 226.996h40.653v167.481h-40.653z" fill="#eee1dd"/><path d="m178.97 99.825h154.061v127.171h-154.061z" fill="#fff5f5"/><path d="m178.97 99.825h40.653v127.171h-40.653z" fill="#eee1dd"/><path d="m273.023 99.825v-21.614c0-4.631-3.754-8.385-8.385-8.385h-17.277c-4.631 0-8.385 3.754-8.385 8.385v21.614z" fill="#fff5f5"/><path d="m247.362 69.826c-4.631 0-8.385 3.754-8.385 8.385v21.614h17.023v-21.614c0-4.631 3.754-8.385 8.385-8.385z" fill="#eee1dd"/><g fill="#aa8080"><path d="m256 430.962c-10.857 0-19.658 8.801-19.658 19.659v53.88h39.317v-53.88c0-10.858-8.801-19.659-19.659-19.659z"/><path d="m335.166 430.962c-10.857 0-19.659 8.801-19.659 19.659v53.88h39.317v-53.88c0-10.858-8.801-19.659-19.658-19.659z"/><path d="m414.331 430.962c-10.857 0-19.659 8.801-19.659 19.659v53.88h39.317v-53.88c0-10.858-8.801-19.659-19.658-19.659z"/><path d="m97.67 430.962c-10.857 0-19.659 8.801-19.659 19.659v53.88h39.317v-53.88c0-10.858-8.801-19.659-19.658-19.659z"/><path d="m176.835 430.962c-10.857 0-19.659 8.801-19.659 19.659v53.88h39.317v-53.88c.001-10.858-8.801-19.659-19.658-19.659z"/></g><path d="m266.542 434.046c-3.049-1.943-6.659-3.084-10.542-3.084-10.857 0-19.658 8.801-19.658 19.658v53.88h21.083v-53.88c0-6.974 3.642-13.084 9.117-16.574z" fill="#8b5e5e"/><path d="m345.707 434.046c-3.049-1.943-6.658-3.084-10.542-3.084-10.857 0-19.658 8.801-19.658 19.658v53.88h21.083v-53.88c0-6.974 3.642-13.084 9.117-16.574z" fill="#8b5e5e"/><path d="m424.873 434.046c-3.049-1.943-6.658-3.084-10.542-3.084-10.857 0-19.659 8.801-19.659 19.658v53.88h21.083v-53.88c.001-6.974 3.642-13.084 9.118-16.574z" fill="#8b5e5e"/><path d="m108.211 434.046c-3.049-1.943-6.658-3.084-10.542-3.084-10.857 0-19.658 8.801-19.658 19.658v53.88h21.083v-53.88c0-6.974 3.642-13.084 9.117-16.574z" fill="#8b5e5e"/><path d="m187.377 434.046c-3.049-1.943-6.658-3.084-10.542-3.084-10.857 0-19.658 8.801-19.658 19.658v53.88h21.083v-53.88c0-6.974 3.642-13.084 9.117-16.574z" fill="#8b5e5e"/><g><path d="m170.25 277.382c-4.142 0-7.5-3.357-7.5-7.5v-8.536c0-4.143 3.358-7.5 7.5-7.5s7.5 3.357 7.5 7.5v8.536c0 4.142-3.358 7.5-7.5 7.5z" fill="#938493"/></g><g><path d="m141.666 277.382c-4.142 0-7.5-3.357-7.5-7.5v-8.536c0-4.143 3.358-7.5 7.5-7.5s7.5 3.357 7.5 7.5v8.536c0 4.142-3.358 7.5-7.5 7.5z" fill="#938493"/></g><g><path d="m198.833 277.382c-4.142 0-7.5-3.357-7.5-7.5v-8.536c0-4.143 3.358-7.5 7.5-7.5s7.5 3.357 7.5 7.5v8.536c0 4.142-3.358 7.5-7.5 7.5z" fill="#938493"/></g><g><path d="m170.25 322.505c-4.142 0-7.5-3.357-7.5-7.5v-8.536c0-4.143 3.358-7.5 7.5-7.5s7.5 3.357 7.5 7.5v8.536c0 4.142-3.358 7.5-7.5 7.5z" fill="#938493"/></g><g><path d="m141.666 322.505c-4.142 0-7.5-3.357-7.5-7.5v-8.536c0-4.143 3.358-7.5 7.5-7.5s7.5 3.357 7.5 7.5v8.536c0 4.142-3.358 7.5-7.5 7.5z" fill="#938493"/></g><g><path d="m198.833 322.505c-4.142 0-7.5-3.357-7.5-7.5v-8.536c0-4.143 3.358-7.5 7.5-7.5s7.5 3.357 7.5 7.5v8.536c0 4.142-3.358 7.5-7.5 7.5z" fill="#938493"/></g><g><path d="m170.25 367.628c-4.142 0-7.5-3.357-7.5-7.5v-8.536c0-4.143 3.358-7.5 7.5-7.5s7.5 3.357 7.5 7.5v8.536c0 4.143-3.358 7.5-7.5 7.5z" fill="#938493"/></g><g><path d="m141.666 367.628c-4.142 0-7.5-3.357-7.5-7.5v-8.536c0-4.143 3.358-7.5 7.5-7.5s7.5 3.357 7.5 7.5v8.536c0 4.143-3.358 7.5-7.5 7.5z" fill="#938493"/></g><g><path d="m198.833 367.628c-4.142 0-7.5-3.357-7.5-7.5v-8.536c0-4.143 3.358-7.5 7.5-7.5s7.5 3.357 7.5 7.5v8.536c0 4.143-3.358 7.5-7.5 7.5z" fill="#938493"/></g><g><path d="m256 277.382c-4.142 0-7.5-3.357-7.5-7.5v-8.536c0-4.143 3.358-7.5 7.5-7.5s7.5 3.357 7.5 7.5v8.536c0 4.142-3.358 7.5-7.5 7.5z" fill="#938493"/></g><g><path d="m227.417 277.382c-4.142 0-7.5-3.357-7.5-7.5v-8.536c0-4.143 3.358-7.5 7.5-7.5s7.5 3.357 7.5 7.5v8.536c0 4.142-3.358 7.5-7.5 7.5z" fill="#938493"/></g><g><path d="m284.583 277.382c-4.142 0-7.5-3.357-7.5-7.5v-8.536c0-4.143 3.358-7.5 7.5-7.5s7.5 3.357 7.5 7.5v8.536c0 4.142-3.357 7.5-7.5 7.5z" fill="#938493"/></g><g><path d="m256 322.505c-4.142 0-7.5-3.357-7.5-7.5v-8.536c0-4.143 3.358-7.5 7.5-7.5s7.5 3.357 7.5 7.5v8.536c0 4.142-3.358 7.5-7.5 7.5z" fill="#938493"/></g><g><path d="m227.417 322.505c-4.142 0-7.5-3.357-7.5-7.5v-8.536c0-4.143 3.358-7.5 7.5-7.5s7.5 3.357 7.5 7.5v8.536c0 4.142-3.358 7.5-7.5 7.5z" fill="#938493"/></g><g><path d="m284.583 322.505c-4.142 0-7.5-3.357-7.5-7.5v-8.536c0-4.143 3.358-7.5 7.5-7.5s7.5 3.357 7.5 7.5v8.536c0 4.142-3.357 7.5-7.5 7.5z" fill="#938493"/></g><g><path d="m256 367.628c-4.142 0-7.5-3.357-7.5-7.5v-8.536c0-4.143 3.358-7.5 7.5-7.5s7.5 3.357 7.5 7.5v8.536c0 4.143-3.358 7.5-7.5 7.5z" fill="#938493"/></g><g><path d="m227.417 367.628c-4.142 0-7.5-3.357-7.5-7.5v-8.536c0-4.143 3.358-7.5 7.5-7.5s7.5 3.357 7.5 7.5v8.536c0 4.143-3.358 7.5-7.5 7.5z" fill="#938493"/></g><g><path d="m284.583 367.628c-4.142 0-7.5-3.357-7.5-7.5v-8.536c0-4.143 3.358-7.5 7.5-7.5s7.5 3.357 7.5 7.5v8.536c0 4.143-3.357 7.5-7.5 7.5z" fill="#938493"/></g><g><path d="m213.125 152.075c-4.142 0-7.5-3.357-7.5-7.5v-8.536c0-4.143 3.358-7.5 7.5-7.5s7.5 3.357 7.5 7.5v8.536c0 4.143-3.358 7.5-7.5 7.5z" fill="#938493"/></g><g><path d="m213.125 197.197c-4.142 0-7.5-3.357-7.5-7.5v-8.536c0-4.143 3.358-7.5 7.5-7.5s7.5 3.357 7.5 7.5v8.536c0 4.143-3.358 7.5-7.5 7.5z" fill="#938493"/></g><g><path d="m270.292 152.075c-4.142 0-7.5-3.357-7.5-7.5v-8.536c0-4.143 3.358-7.5 7.5-7.5s7.5 3.357 7.5 7.5v8.536c0 4.143-3.358 7.5-7.5 7.5z" fill="#938493"/></g><g><path d="m241.708 152.075c-4.142 0-7.5-3.357-7.5-7.5v-8.536c0-4.143 3.358-7.5 7.5-7.5s7.5 3.357 7.5 7.5v8.536c0 4.143-3.357 7.5-7.5 7.5z" fill="#938493"/></g><g><path d="m298.875 152.075c-4.142 0-7.5-3.357-7.5-7.5v-8.536c0-4.143 3.358-7.5 7.5-7.5s7.5 3.357 7.5 7.5v8.536c0 4.143-3.357 7.5-7.5 7.5z" fill="#938493"/></g><g><path d="m270.292 197.197c-4.142 0-7.5-3.357-7.5-7.5v-8.536c0-4.143 3.358-7.5 7.5-7.5s7.5 3.357 7.5 7.5v8.536c0 4.143-3.358 7.5-7.5 7.5z" fill="#938493"/></g><g><path d="m241.708 197.197c-4.142 0-7.5-3.357-7.5-7.5v-8.536c0-4.143 3.358-7.5 7.5-7.5s7.5 3.357 7.5 7.5v8.536c0 4.143-3.357 7.5-7.5 7.5z" fill="#938493"/></g><g><path d="m298.875 197.197c-4.142 0-7.5-3.357-7.5-7.5v-8.536c0-4.143 3.358-7.5 7.5-7.5s7.5 3.357 7.5 7.5v8.536c0 4.143-3.357 7.5-7.5 7.5z" fill="#938493"/></g><g><path d="m341.751 277.382c-4.142 0-7.5-3.357-7.5-7.5v-8.536c0-4.143 3.358-7.5 7.5-7.5s7.5 3.357 7.5 7.5v8.536c0 4.142-3.358 7.5-7.5 7.5z" fill="#938493"/></g><g><path d="m313.167 277.382c-4.142 0-7.5-3.357-7.5-7.5v-8.536c0-4.143 3.358-7.5 7.5-7.5s7.5 3.357 7.5 7.5v8.536c0 4.142-3.358 7.5-7.5 7.5z" fill="#938493"/></g><g><path d="m370.334 277.382c-4.142 0-7.5-3.357-7.5-7.5v-8.536c0-4.143 3.358-7.5 7.5-7.5s7.5 3.357 7.5 7.5v8.536c0 4.142-3.357 7.5-7.5 7.5z" fill="#938493"/></g><g><path d="m341.751 322.505c-4.142 0-7.5-3.357-7.5-7.5v-8.536c0-4.143 3.358-7.5 7.5-7.5s7.5 3.357 7.5 7.5v8.536c0 4.142-3.358 7.5-7.5 7.5z" fill="#938493"/></g><g><path d="m313.167 322.505c-4.142 0-7.5-3.357-7.5-7.5v-8.536c0-4.143 3.358-7.5 7.5-7.5s7.5 3.357 7.5 7.5v8.536c0 4.142-3.358 7.5-7.5 7.5z" fill="#938493"/></g><g><path d="m370.334 322.505c-4.142 0-7.5-3.357-7.5-7.5v-8.536c0-4.143 3.358-7.5 7.5-7.5s7.5 3.357 7.5 7.5v8.536c0 4.142-3.357 7.5-7.5 7.5z" fill="#938493"/></g><g><path d="m341.751 367.628c-4.142 0-7.5-3.357-7.5-7.5v-8.536c0-4.143 3.358-7.5 7.5-7.5s7.5 3.357 7.5 7.5v8.536c0 4.143-3.358 7.5-7.5 7.5z" fill="#938493"/></g><g><path d="m313.167 367.628c-4.142 0-7.5-3.357-7.5-7.5v-8.536c0-4.143 3.358-7.5 7.5-7.5s7.5 3.357 7.5 7.5v8.536c0 4.143-3.358 7.5-7.5 7.5z" fill="#938493"/></g><g><path d="m370.334 367.628c-4.142 0-7.5-3.357-7.5-7.5v-8.536c0-4.143 3.358-7.5 7.5-7.5s7.5 3.357 7.5 7.5v8.536c0 4.143-3.357 7.5-7.5 7.5z" fill="#938493"/></g><g><path d="m337.922 107.325h-163.844c-4.142 0-7.5-3.357-7.5-7.5s3.358-7.5 7.5-7.5h163.845c4.142 0 7.5 3.357 7.5 7.5s-3.359 7.5-7.501 7.5z" fill="#eee1dd"/></g><g><path d="m411.119 234.496h-310.238c-4.142 0-7.5-3.357-7.5-7.5s3.358-7.5 7.5-7.5h310.238c4.142 0 7.5 3.357 7.5 7.5s-3.358 7.5-7.5 7.5z" fill="#eee1dd"/></g><g><path d="m475.389 401.978h-438.778c-4.142 0-7.5-3.357-7.5-7.5s3.358-7.5 7.5-7.5h438.778c4.142 0 7.5 3.357 7.5 7.5s-3.358 7.5-7.5 7.5z" fill="#cbafaf"/></g><g><path d="m475.389 512h-438.778c-4.142 0-7.5-3.357-7.5-7.5s3.358-7.5 7.5-7.5h438.778c4.142 0 7.5 3.357 7.5 7.5s-3.358 7.5-7.5 7.5z" fill="#cbafaf"/></g></g></svg>