<svg id="Capa_1" enable-background="new 0 0 512 512" height="60" viewBox="0 0 512 512" width="60" xmlns="http://www.w3.org/2000/svg"><g><path d="m119.07 213.025h274.5v126.749h-274.5z" fill="#f4d8bc"/><path d="m119.07 213.025h60.227v126.749h-60.227z" fill="#f1cb86"/><path d="m119.07 175.049h274.5v40.013h-274.5z" fill="#f1cb86"/><path d="m119.07 175.049h60.227v40.013h-60.227z" fill="#ecb780"/><path d="m119.07 379.787h274.5v124.713h-274.5z" fill="#f4d8bc"/><path d="m119.07 379.787h60.227v124.713h-60.227z" fill="#f1cb86"/><g><path d="m439.874 55.052c-4.142 0-7.5-3.357-7.5-7.5v-40.052c0-4.143 3.358-7.5 7.5-7.5s7.5 3.357 7.5 7.5v40.052c0 4.142-3.358 7.5-7.5 7.5z" fill="#cbafaf"/></g><path d="m452.593 50.688c-.892-1.914-2.797-3.137-4.889-3.137h-15.659c-2.093 0-3.998 1.222-4.889 3.137l-39.738 85.337h104.912z" fill="#aa8080"/><path d="m452.593 50.688c-.892-1.914-2.797-3.136-4.889-3.136h-15.659c-2.093 0-3.998 1.222-4.889 3.136l-39.738 85.337h39l32.956-70.774z" fill="#8b5e5e"/><path d="m387.418 175.049h104.912v164.725h-104.912z" fill="#fff5f5"/><path d="m387.418 175.049h39.051v164.725h-39.051z" fill="#eee1dd"/><path d="m387.418 379.787h104.912v124.713h-104.912z" fill="#fff5f5"/><path d="m387.418 379.787h39.051v124.713h-39.051z" fill="#eee1dd"/><path d="m19.95 175.049h104.912v164.725h-104.912z" fill="#fff5f5"/><path d="m19.95 175.049h39.051v164.725h-39.051z" fill="#eee1dd"/><path d="m19.95 379.787h104.912v124.713h-104.912z" fill="#fff5f5"/><path d="m19.95 379.787h39.051v124.713h-39.051z" fill="#eee1dd"/><path d="m256.14 416.481c-28.698 0-51.962 23.264-51.962 51.961v36.058h51.962l4.929-2.141v-79.333z" fill="#aa8080"/><path d="m250.922 416.742c-26.247 2.617-46.744 24.764-46.744 51.7v36.058h28.446v-41.843c0-18.395 7.107-34.855 18.298-45.915z" fill="#8b5e5e"/><path d="m440.874 254.069h-23.276c-3.056 0-5.534 2.478-5.534 5.534v33.597c0 3.056 2.478 5.534 5.534 5.534h23.276z" fill="#80b4fb"/><path d="m462.15 254.069h-22.276v44.665h22.276c3.056 0 5.534-2.478 5.534-5.534v-33.597c0-3.056-2.478-5.534-5.534-5.534z" fill="#9dc6fb"/><path d="m309.291 254.069h-23.276c-3.056 0-5.534 2.478-5.534 5.534v33.597c0 3.056 2.478 5.534 5.534 5.534h23.276z" fill="#80b4fb"/><path d="m330.567 254.069h-22.276v44.665h22.276c3.056 0 5.534-2.478 5.534-5.534v-33.597c0-3.056-2.478-5.534-5.534-5.534z" fill="#9dc6fb"/><path d="m204.99 254.069h-23.276c-3.056 0-5.534 2.478-5.534 5.534v33.597c0 3.056 2.478 5.534 5.534 5.534h23.276z" fill="#80b4fb"/><path d="m226.265 254.069h-22.276v44.665h22.276c3.056 0 5.534-2.478 5.534-5.534v-33.597c0-3.056-2.477-5.534-5.534-5.534z" fill="#9dc6fb"/><path d="m73.407 254.069h-23.276c-3.056 0-5.534 2.478-5.534 5.534v33.597c0 3.056 2.478 5.534 5.534 5.534h23.276z" fill="#80b4fb"/><path d="m94.682 254.069h-22.276v44.665h22.276c3.056 0 5.534-2.478 5.534-5.534v-33.597c0-3.056-2.477-5.534-5.534-5.534z" fill="#9dc6fb"/><path d="m440.874 419.811h-23.276c-3.056 0-5.534 2.478-5.534 5.534v33.597c0 3.056 2.478 5.534 5.534 5.534h23.276z" fill="#80b4fb"/><path d="m462.15 419.811h-22.276v44.665h22.276c3.056 0 5.534-2.478 5.534-5.534v-33.597c0-3.056-2.478-5.534-5.534-5.534z" fill="#9dc6fb"/><path d="m73.407 419.811h-23.276c-3.056 0-5.534 2.478-5.534 5.534v33.597c0 3.056 2.478 5.534 5.534 5.534h23.276z" fill="#80b4fb"/><path d="m94.682 419.811h-22.276v44.665h22.276c3.056 0 5.534-2.478 5.534-5.534v-33.597c0-3.056-2.477-5.534-5.534-5.534z" fill="#9dc6fb"/><path d="m256.14 416.481v88.019h51.962v-36.058c0-28.697-23.264-51.961-51.962-51.961z" fill="#c3a2a2"/><g><path d="m499.551 512h-487.102c-4.142 0-7.5-3.357-7.5-7.5s3.358-7.5 7.5-7.5h487.102c4.142 0 7.5 3.357 7.5 7.5s-3.358 7.5-7.5 7.5z" fill="#938493"/></g><path d="m498.555 338.775h-484.829c-3.361 0-6.086 2.724-6.086 6.085v29.841c0 3.361 2.724 6.085 6.085 6.085h484.829c3.361 0 6.086-2.724 6.086-6.085v-29.841c0-3.361-2.724-6.085-6.085-6.085z" fill="#f1cb86"/><path d="m173.974 374.702v-29.842c0-3.361 2.724-6.085 6.086-6.085h-166.334c-3.361 0-6.086 2.724-6.086 6.085v29.841c0 3.361 2.724 6.085 6.085 6.085h166.333c-3.36.001-6.084-2.723-6.084-6.084z" fill="#ecb780"/><path d="m19.95 172.525h104.912v27.902h-104.912z" fill="#eee1dd"/><path d="m19.95 172.525h39.051v27.902h-39.051z" fill="#ccbeb9"/><path d="m387.418 172.525h104.912v27.902h-104.912z" fill="#eee1dd"/><path d="m387.418 172.525h39.051v27.902h-39.051z" fill="#ccbeb9"/><path d="m497.913 135.037h-116.077c-3.716 0-6.728 3.012-6.728 6.727v26.557c0 3.716 3.012 6.728 6.728 6.728h116.077c3.715 0 6.727-3.012 6.727-6.728v-26.557c0-3.715-3.012-6.727-6.727-6.727z" fill="#c3a2a2"/><path d="m414.108 168.321v-26.557c0-3.715 3.012-6.728 6.728-6.728h-39c-3.716 0-6.728 3.012-6.728 6.728v26.557c0 3.716 3.012 6.728 6.728 6.728h39c-3.716 0-6.728-3.012-6.728-6.728z" fill="#aa8080"/><g><path d="m72.406 55.052c-4.142 0-7.5-3.357-7.5-7.5v-40.052c0-4.143 3.358-7.5 7.5-7.5s7.5 3.357 7.5 7.5v40.052c0 4.142-3.357 7.5-7.5 7.5z" fill="#cbafaf"/></g><path d="m85.125 50.688c-.892-1.914-2.796-3.137-4.889-3.137h-15.659c-2.093 0-3.998 1.222-4.889 3.137l-39.738 85.337h104.912z" fill="#aa8080"/><path d="m85.125 50.688c-.892-1.914-2.797-3.136-4.889-3.136h-15.659c-2.093 0-3.998 1.222-4.889 3.136l-39.738 85.337h39l32.956-70.774z" fill="#8b5e5e"/><path d="m130.445 135.037h-116.077c-3.716 0-6.728 3.012-6.728 6.727v26.557c0 3.716 3.012 6.728 6.728 6.728h116.077c3.715 0 6.727-3.012 6.727-6.728v-26.557c.001-3.715-3.011-6.727-6.727-6.727z" fill="#c3a2a2"/><path d="m46.64 168.321v-26.557c0-3.715 3.012-6.728 6.728-6.728h-39c-3.716 0-6.728 3.012-6.728 6.728v26.557c0 3.716 3.012 6.728 6.728 6.728h39c-3.715 0-6.728-3.012-6.728-6.728z" fill="#aa8080"/></g></svg>