<svg id="Capa_1" enable-background="new 0 0 511.999 511.999" height="60" viewBox="0 0 511.999 511.999" width="60" xmlns="http://www.w3.org/2000/svg"><g><path d="m207.308 305.26c0-5.534 4.486-10.021 10.021-10.021h128.758v-218.282h-316.321v427.431h177.542z" fill="#fff5f5"/><path d="m29.766 76.957h48.214v427.431h-48.214z" fill="#eee1dd"/><path d="m366.335 70.879-43.81-68.16c-1.089-1.694-2.966-2.719-4.98-2.719h-259.237c-2.015 0-3.892 1.025-4.981 2.72l-43.809 68.159c-2.533 3.941.296 9.123 4.981 9.123h346.855c4.684 0 7.514-5.182 4.981-9.123z" fill="#e27a66"/><path d="m63.306 70.879 43.809-68.16c1.089-1.695 2.966-2.72 4.981-2.72h-53.788c-2.015 0-3.892 1.025-4.981 2.72l-43.809 68.16c-2.533 3.941.296 9.123 4.981 9.123h53.788c-4.685 0-7.514-5.182-4.981-9.123z" fill="#dd544f"/><path d="m70.003 376.298v128.091h94.488v-.001-128.09c-11.477 0-82.971 0-94.488 0z" fill="#aa8080"/><path d="m70.003 376.298v128.091h33.829v-128.091c-15.662 0-29.327 0-33.829 0z" fill="#8b5e5e"/><path d="m157.363 347.237h-80.231c-3.937 0-7.129 3.191-7.129 7.129v23.707h94.489v-23.707c0-3.937-3.192-7.129-7.129-7.129z" fill="#c3a2a2"/><path d="m110.961 347.237h-33.829c-3.937 0-7.129 3.191-7.129 7.129v23.706h33.829v-23.706c0-3.937 3.192-7.129 7.129-7.129z" fill="#aa8080"/><g><path d="m218.632 309.827h-196.422c-4.204 0-7.611-3.407-7.611-7.612 0-4.204 3.408-7.611 7.611-7.611h196.422c4.204 0 7.611 3.407 7.611 7.611.001 4.204-3.407 7.612-7.611 7.612z" fill="#eee1dd"/></g><path d="m477.889 292.195h-263.604c-5.534 0-10.021 4.486-10.021 10.021v202.172h283.646v-202.172c0-5.535-4.486-10.021-10.021-10.021z" fill="#f4d8bc"/><path d="m259.898 292.195h-45.613c-5.534 0-10.021 4.486-10.021 10.021v202.172h45.613v-202.172c0-5.535 4.487-10.021 10.021-10.021z" fill="#f1cb86"/><path d="m274.888 431.608h140.921v39.411h-140.921z" fill="#ddeafb"/><path d="m274.888 431.608h42.186v39.411h-42.186z" fill="#bed8fb"/><path d="m274.888 358.707h140.921v41.44h-140.921z" fill="#ddeafb"/><path d="m274.888 358.707h42.186v41.44h-42.186z" fill="#bed8fb"/><path d="m274.888 398.088h140.921v35.433h-140.921z" fill="#bed8fb"/><path d="m274.888 398.088h42.186v35.433h-42.186z" fill="#9dc6fb"/><path d="m274.888 468.955h140.921v35.433h-140.921z" fill="#bed8fb"/><path d="m274.888 468.955h42.186v35.433h-42.186z" fill="#9dc6fb"/><path d="m421.545 333.41h-150.916c-2.76 0-4.998 2.238-4.998 4.998v19.249c0 2.76 2.238 4.998 4.998 4.998h150.916c2.76 0 4.998-2.238 4.998-4.998v-19.249c0-2.761-2.238-4.998-4.998-4.998z" fill="#938493"/><path d="m312.061 357.657v-19.249c0-2.76 2.238-4.998 4.998-4.998h-46.43c-2.76 0-4.998 2.238-4.998 4.998v19.249c0 2.76 2.238 4.998 4.998 4.998h46.43c-2.76 0-4.998-2.237-4.998-4.998z" fill="#7b6c79"/><g><path d="m495.819 511.999h-473.609c-4.204 0-7.611-3.407-7.611-7.611s3.408-7.611 7.611-7.611h473.609c4.204 0 7.611 3.407 7.611 7.611s-3.407 7.611-7.611 7.611z" fill="#ccf49f"/></g><g><path d="m145.495 441.928h-5.85c-4.204 0-7.611-3.407-7.611-7.612 0-4.204 3.408-7.611 7.611-7.611h5.85c4.204 0 7.611 3.407 7.611 7.611s-3.407 7.612-7.611 7.612z" fill="#ddeafb"/></g><path d="m77.348 154.823v63.878c0 3.418 2.771 6.189 6.189 6.189h69.656c3.418 0 6.189-2.771 6.189-6.189v-63.878c-8.696 0-73.339 0-82.034 0z" fill="#80b4fb"/><path d="m111.176 218.701v-63.878c-15.719 0-30.052 0-33.829 0v63.878c0 3.418 2.771 6.189 6.189 6.189h33.829c-3.418 0-6.189-2.771-6.189-6.189z" fill="#61a2f9"/><path d="m110.753 224.89h15.223v-70.067c-5.025 0-10.198 0-15.223 0z" fill="#9dc6fb"/><path d="m153.192 122.911h-69.655c-3.418 0-6.189 2.771-6.189 6.189v27.752h82.034v-27.752c0-3.418-2.771-6.189-6.19-6.189z" fill="#9dc6fb"/><path d="m116.942 122.911h-33.405c-3.418 0-6.189 2.771-6.189 6.189v27.752h33.405v-27.752c0-3.418 2.771-6.189 6.189-6.189z" fill="#80b4fb"/><path d="m216.472 154.823v63.878c0 3.418 2.771 6.189 6.189 6.189h69.656c3.418 0 6.189-2.771 6.189-6.189v-63.878c-8.695 0-73.339 0-82.034 0z" fill="#80b4fb"/><path d="m250.301 218.701v-63.878c-15.719 0-30.052 0-33.829 0v63.878c0 3.418 2.771 6.189 6.189 6.189h33.829c-3.418 0-6.189-2.771-6.189-6.189z" fill="#61a2f9"/><path d="m249.877 224.89h15.223v-70.067c-5.025 0-10.198 0-15.223 0z" fill="#9dc6fb"/><path d="m292.317 122.911h-69.656c-3.418 0-6.189 2.771-6.189 6.189v27.752h82.034v-27.752c0-3.418-2.771-6.189-6.189-6.189z" fill="#9dc6fb"/><path d="m256.066 122.911h-33.405c-3.418 0-6.189 2.771-6.189 6.189v27.752h33.405v-27.752c0-3.418 2.771-6.189 6.189-6.189z" fill="#80b4fb"/></g></svg>