<svg id="Capa_1" enable-background="new 0 0 512 512" height="60" viewBox="0 0 512 512" width="60" xmlns="http://www.w3.org/2000/svg"><g><g><path d="m256 187.223-230.25 147.694v169.471h460.5v-169.471z" fill="#e27a66"/></g><path d="m68.828 307.285-43.077 27.632v169.471h43.077z" fill="#dd544f"/><path d="m151.315 427.454h209.369v42.624h-209.369z" fill="#ddeafb"/><path d="m151.315 427.454h42.707v42.624h-42.707z" fill="#bed8fb"/><path d="m151.315 351.423h209.369v42.878h-209.369z" fill="#ddeafb"/><path d="m151.315 351.423h42.707v42.878h-42.707z" fill="#bed8fb"/><path d="m141.451 26.012-4.062 202.528 51.437-32.994-3.387-169.534z" fill="#eee1dd"/><path d="m165.808 26.012h-24.357l-4.062 202.528 24.674-15.827z" fill="#ccbeb9"/><path d="m47.187 26.012-5.316 263.798 53.914-34.582-4.609-229.216z" fill="#eee1dd"/><path d="m71.544 26.012h-24.357l-5.316 263.798 24.676-15.828z" fill="#ccbeb9"/><g><path d="m487.532 335.74-231.532-148.517-231.532 148.517c-7.199 4.618-16.775 2.526-21.396-4.674-4.618-7.199-2.526-16.778 4.674-21.396l234.474-150.403c8.372-5.369 19.191-5.369 27.561.001l234.473 150.402c7.2 4.618 9.292 14.197 4.674 21.396-4.618 7.198-14.196 9.292-21.396 4.674z" fill="#9d6b6b"/></g><g><path d="m57.319 297.597c-3.647-5.686-4.196-12.458-2.111-18.371l-47.462 30.444c-7.199 4.618-9.291 14.197-4.674 21.396 4.62 7.199 14.197 9.292 21.396 4.674l45.403-29.124c-4.996-1.266-9.548-4.337-12.552-9.019z" fill="#785252"/></g><path d="m151.315 391.999h209.369v37.463h-209.369z" fill="#bed8fb"/><path d="m151.315 391.999h42.707v37.463h-42.707z" fill="#9dc6fb"/><path d="m151.315 466.925h209.369v37.463h-209.369z" fill="#bed8fb"/><path d="m151.315 466.925h42.707v37.463h-42.707z" fill="#9dc6fb"/><path d="m186.795 0h-47.375c-1.905 0-3.451 1.545-3.451 3.451v21.141c0 1.905 1.545 3.451 3.451 3.451h47.376c1.905 0 3.451-1.545 3.451-3.451v-21.141c-.001-1.906-1.546-3.451-3.452-3.451z" fill="#fff5f5"/><path d="m160.326 24.591v-21.141c0-1.905 1.545-3.45 3.45-3.45h-24.356c-1.906 0-3.45 1.545-3.45 3.45v21.141c0 1.905 1.545 3.45 3.45 3.45h24.357c-1.906.001-3.451-1.544-3.451-3.45z" fill="#eee1dd"/><path d="m92.516 0h-47.376c-1.905 0-3.451 1.545-3.451 3.451v21.141c0 1.905 1.545 3.451 3.451 3.451h47.376c1.905 0 3.451-1.545 3.451-3.451v-21.141c-.001-1.906-1.546-3.451-3.451-3.451z" fill="#fff5f5"/><path d="m66.046 24.591v-21.141c0-1.905 1.545-3.45 3.45-3.45h-24.356c-1.906 0-3.45 1.545-3.45 3.45v21.141c0 1.905 1.545 3.45 3.45 3.45h24.357c-1.906.001-3.451-1.544-3.451-3.45z" fill="#eee1dd"/><path d="m364.703 324.94h-217.406c-3.189 0-5.773 2.585-5.773 5.773v18.049c0 3.188 2.585 5.773 5.773 5.773h217.406c3.188 0 5.773-2.585 5.773-5.773v-18.049c0-3.188-2.584-5.773-5.773-5.773z" fill="#eaafa5"/><path d="m187.813 348.763v-18.049c0-3.188 2.584-5.773 5.774-5.773h-46.289c-3.189 0-5.773 2.585-5.773 5.773v18.049c0 3.188 2.584 5.773 5.773 5.773h46.289c-3.19 0-5.774-2.585-5.774-5.773z" fill="#e48e81"/><g><path d="m492.903 512h-473.806c-4.204 0-7.611-3.407-7.611-7.612s3.408-7.611 7.611-7.611h473.805c4.204 0 7.611 3.407 7.611 7.611s-3.407 7.612-7.61 7.612z" fill="#938493"/></g></g></svg>